<svg xmlns="http://www.w3.org/2000/svg" viewBox="0 0 500 500"><g id="freepik--background-simple--inject-97"><path d="M460.39,237.44c-4.91,41.61-23.91,90-61.85,112.21C341.21,383.24,346,434.9,234.11,457.35A229.81,229.81,0,0,1,184.49,462a191,191,0,0,1-24.35-2C89,449.67,41.16,400.23,23.6,340.56.5,262.08,46.63,210.7,77.22,179.74S130.2,52.33,240,29.38a222.83,222.83,0,0,1,51-4.84c39.08,1,81.7,13.79,111.2,40.57q3.31,3,6.46,6.25C449.68,113.44,467.09,180.72,460.39,237.44Z" style="fill:#8FC9ED"></path><path d="M460.39,237.44c-4.91,41.61-23.91,90-61.85,112.21C341.21,383.24,346,434.9,234.11,457.35A229.81,229.81,0,0,1,184.49,462a191,191,0,0,1-24.35-2C89,449.67,41.16,400.23,23.6,340.56.5,262.08,46.63,210.7,77.22,179.74S130.2,52.33,240,29.38a222.83,222.83,0,0,1,51-4.84c39.08,1,81.7,13.79,111.2,40.57q3.31,3,6.46,6.25C449.68,113.44,467.09,180.72,460.39,237.44Z" style="fill:#fff;opacity:0.7000000000000001"></path></g><g id="freepik--astronaut-helmet--inject-97"><path d="M264,385.63v-.05l-5.24,0-5.23,0v.05L183.7,386l19.54,42.41a16.12,16.12,0,0,0,14.64,9.37h81.75a16.12,16.12,0,0,0,14.64-9.37L333.81,386Z" style="fill:#8FC9ED"></path><path d="M299.63,438.26H217.88a16.65,16.65,0,0,1-15.09-9.66l-19.86-43.12,70.59-.4,5.24,0,5.73,0v.06l70.09.35L314.72,428.6A16.65,16.65,0,0,1,299.63,438.26ZM184.48,386.48l19.21,41.7a15.68,15.68,0,0,0,14.19,9.08h81.75a15.66,15.66,0,0,0,14.18-9.08L333,386.48l-69.54-.36v0l-4.73,0-4.78,0-.46.05Z" style="fill:#263238"></path><path d="M194.07,408.48A252.65,252.65,0,0,0,323,409.55L330.11,394a238.48,238.48,0,0,1-143.31-1.3Z" style="fill:#263238"></path><path d="M260.51,417.88A249.82,249.82,0,0,1,193.93,409l-.22-.07-7.85-17,1.1.37a238,238,0,0,0,143,1.29l1.08-.33L323.3,410l-.23.06A250.3,250.3,0,0,1,260.51,417.88Zm-66.09-9.83a252,252,0,0,0,128.17,1.07l6.6-14.32a239,239,0,0,1-141.46-1.27Z" style="fill:#263238"></path><path d="M136.56,305.27l-7.95,20.3L116,347s2.51,15.79,31.1,30.35,68.52,29.14,115.45,28.6,99.81-17.81,145.66-52.33l-8.59-17.18L389,309.77s-18.58,15.81-70.91,30.92-92.25,7.55-119.23,0S136.56,305.27,136.56,305.27Z" style="fill:#8FC9ED"></path><path d="M260,406.48c-37.74,0-75.79-9.64-113.13-28.66-28.5-14.51-31.27-30.06-31.37-30.72l0-.18,12.74-21.6,8.16-20.86.53.42c.36.28,35.55,27.89,62.12,35.33,25.92,7.26,66.45,15.15,119,0,51.59-14.89,70.54-30.67,70.73-30.82l.53-.45,10.85,27.33,8.76,17.52-.34.25c-43.5,32.75-96.7,51.86-146,52.43ZM116.49,347.11c.39,1.73,4.38,16.36,30.8,29.82,38,19.38,76.83,29,115.22,28.54,48.92-.56,101.76-19.51,145-52l-8.4-16.81-10.36-26.1c-3.43,2.64-23.49,17-70.56,30.59-52.74,15.22-93.46,7.29-119.5,0-25-7-57.4-31.59-61.94-35.09l-7.7,19.68Z" style="fill:#263238"></path><path d="M133,314.27c34.24,30,79.33,46.49,127.37,46.49,48.54,0,94.2-16.89,128.58-47.55a6.33,6.33,0,0,0,.95-1.06l-.95-2.38s-18.58,15.81-70.91,30.92-92.25,7.55-119.23,0-62.29-35.42-62.29-35.42Z" style="fill:#263238"></path><path d="M401.73,340.75l-2.15-4.29-3.07-7.75a6.5,6.5,0,0,0-2,1.17c-34.87,29.67-81.28,46-130.71,46-50,0-96.85-16.69-131.84-47a6.53,6.53,0,0,0-4.35-1.58L122,336.87a6.46,6.46,0,0,0,1.47,1.85c37.35,32.35,87.19,50.17,140.35,50.17C315.74,388.89,364.66,371.8,401.73,340.75Z" style="fill:#263238"></path><path d="M263.78,389.39c-53.29,0-103.25-17.86-140.69-50.29a7.13,7.13,0,0,1-1.58-2l-.14-.25,5.93-10h.28a7.18,7.18,0,0,1,4.68,1.7c34.89,30.24,81.6,46.88,131.52,46.88,49.3,0,95.6-16.3,130.37-45.89a6.92,6.92,0,0,1,2.19-1.26l.46-.16,3.25,8.19,2.3,4.61-.3.25C364.89,372.25,315.79,389.39,263.78,389.39ZM122.53,336.88a5.85,5.85,0,0,0,1.21,1.46c37.26,32.28,87,50.05,140,50.05,51.63,0,100.39-17,137.33-47.77l-2-3.94-2.91-7.32a5.75,5.75,0,0,0-1.43.9c-34.95,29.75-81.48,46.13-131,46.13-50.16,0-97.1-16.73-132.18-47.12a6,6,0,0,0-3.73-1.45Z" style="fill:#263238"></path><path d="M260.46,385.58c-53.17,0-103-17.82-140.36-50.18a6.5,6.5,0,1,1,8.51-9.83c35,30.31,81.81,47,131.85,47,49.42,0,95.84-16.35,130.7-46a6.5,6.5,0,1,1,8.42,9.9C362.37,368.13,313,385.58,260.46,385.58Z" style="fill:#fff"></path><path d="M260.46,386.08c-53.29,0-103.25-17.87-140.69-50.3a7,7,0,1,1,9.17-10.58c34.89,30.23,81.6,46.88,131.52,46.88,49.3,0,95.6-16.31,130.38-45.9a7,7,0,0,1,11.51,5.89,7,7,0,0,1-2.44,4.77C362.61,368.59,313.08,386.08,260.46,386.08Zm-136.1-61.59A6,6,0,0,0,120.43,335c37.25,32.28,87,50.06,140,50.06,52.38,0,101.68-17.41,138.8-49a6,6,0,0,0,.68-8.46,6,6,0,0,0-8.46-.68c-35,29.75-81.48,46.14-131,46.14-50.16,0-97.1-16.74-132.18-47.13A6,6,0,0,0,124.36,324.49Z" style="fill:#263238"></path><path d="M260.41,357.32c-49.14,0-95.21-17.25-129.72-48.57a6.5,6.5,0,0,1,8.74-9.63c32.11,29.15,75.08,45.2,121,45.2,45.34,0,87.93-15.72,119.93-44.25a6.5,6.5,0,1,1,8.65,9.7C354.61,340.43,309,357.32,260.41,357.32Z" style="fill:#fff"></path><path d="M260.41,357.82c-49.27,0-95.45-17.3-130.06-48.7a7,7,0,0,1-.47-9.89,7,7,0,0,1,9.88-.48c32,29.06,74.87,45.07,120.65,45.07,45.22,0,87.69-15.67,119.6-44.13a7,7,0,0,1,9.32,10.45C354.85,340.89,309.07,357.82,260.41,357.82ZM135.07,297.93h-.3a5.94,5.94,0,0,0-4.15,2,6,6,0,0,0,.41,8.48c34.41,31.24,80.36,48.44,129.38,48.44,48.41,0,94-16.84,128.25-47.43a6,6,0,0,0-8-8.95c-32.09,28.62-74.8,44.38-120.26,44.38-46,0-89.11-16.1-121.32-45.33A6,6,0,0,0,135.07,297.93Z" style="fill:#263238"></path><path d="M136.56,305.27c31.77,28.15,75.53,45.55,123.85,45.55s92.08-17.4,123.85-45.55A162.29,162.29,0,0,0,408.77,219c0-86.56-66.42-156.73-148.36-156.73S112.05,132.41,112.05,219A162.29,162.29,0,0,0,136.56,305.27Z" style="fill:#8FC9ED"></path><path d="M260.41,351.32c-46.84,0-90.94-16.22-124.18-45.67l-.09-.11A162.9,162.9,0,0,1,111.55,219c0-86.7,66.78-157.23,148.86-157.23S409.27,132.27,409.27,219a162.9,162.9,0,0,1-24.59,86.57l-.09.11C351.35,335.1,307.25,351.32,260.41,351.32ZM137,305c33.05,29.26,76.89,45.37,123.46,45.37S350.82,334.21,383.87,305a161.87,161.87,0,0,0,24.4-86c0-86.15-66.33-156.23-147.86-156.23S112.55,132.82,112.55,219A161.87,161.87,0,0,0,137,305Z" style="fill:#263238"></path><path d="M260.41,76.25a142.67,142.67,0,0,1,132,87.87c-20.57-55.8-71.92-95.34-132-95.34s-111.45,39.54-132,95.34A142.67,142.67,0,0,1,260.41,76.25Z" style="fill:#263238"></path><path d="M392,164.31c-22-53.19-73.62-87.56-131.56-87.56s-109.58,34.37-131.56,87.56l-.93-.36a148.87,148.87,0,0,1,51.36-68.83,136,136,0,0,1,162.26,0A148.87,148.87,0,0,1,392.9,164ZM260.41,75.75A142.87,142.87,0,0,1,383,144.33c-24.86-46.21-71-75.05-122.57-75.05s-97.72,28.84-122.57,75.05A142.87,142.87,0,0,1,260.41,75.75Z" style="fill:#8FC9ED"></path><path d="M379.48,295.69c-30.55,25.41-72.62,37.42-119.07,37.42s-88.53-12-119.07-37.42a140.44,140.44,0,0,1-16.57-34.13,152.7,152.7,0,0,0,17.41,39.24c30.32,26.87,72.1,43.48,118.23,43.48s87.9-16.61,118.23-43.48a153.12,153.12,0,0,0,17.41-39.23A140.91,140.91,0,0,1,379.48,295.69Z" style="fill:#263238"></path><path d="M260.41,344.78c-44.72,0-86.83-15.49-118.57-43.61l-.09-.11a153.09,153.09,0,0,1-17.46-39.36l.95-.29a140.08,140.08,0,0,0,16.48,33.94c29.33,24.38,70.36,37.26,118.69,37.26s89.36-12.88,118.69-37.26a140.26,140.26,0,0,0,16.48-33.94l.95.29a153.09,153.09,0,0,1-17.46,39.36l-.1.11C347.24,329.29,305.13,344.78,260.41,344.78ZM142.56,300.47c31.55,27.93,73.4,43.31,117.85,43.31s86.3-15.38,117.85-43.31a149.89,149.89,0,0,0,9.93-18.7,136.9,136.9,0,0,1-8.3,14.19l-.09.11c-29.52,24.56-70.8,37.54-119.39,37.54s-89.87-13-119.39-37.54l-.09-.11a138.94,138.94,0,0,1-8.31-14.2A152.14,152.14,0,0,0,142.56,300.47Z" style="fill:#8FC9ED"></path><path d="M114.87,221.88l-11.78,2.86,15.24,62.8,11.78-2.85c3.12-.76,2.24-15.43-2-32.78S118,221.12,114.87,221.88Z" style="fill:#fff"></path><path d="M118,288.15l-15.48-63.78,12.26-3,.12.49-.12-.49c4-1,10.13,14.94,13.88,30.4s5.59,32.42,1.59,33.38Zm-14.27-63,15,61.84L130,284.2c2.45-.59,2.09-13.95-2.33-32.17S117.42,221.77,115,222.37Z" style="fill:#263238"></path><path d="M116.37,254.77c4.21,17.34,5.09,32,2,32.77s-9.07-12.68-13.27-30-5.09-32-2-32.77S112.16,237.42,116.37,254.77Z" style="fill:#263238"></path><path d="M118.1,288.07c-4,0-9.89-15.43-13.53-30.44a136,136,0,0,1-3.74-22.69c-.4-6.65.32-10.25,2.15-10.69,4-1,10.13,14.94,13.88,30.4h0c3.75,15.46,5.58,32.41,1.59,33.38A1.34,1.34,0,0,1,118.1,288.07ZM103.39,225.2l-.18,0c-.89.22-1.79,2.88-1.39,9.66a135.12,135.12,0,0,0,3.72,22.52c4.42,18.22,10.22,30.27,12.68,29.66s2.09-14-2.33-32.17h0C111.57,237.1,105.93,225.2,103.39,225.2Z" style="fill:#263238"></path><path d="M398.14,246.2l7.11,1.73-9.2,37.94-7.12-1.73c-1.88-.45-1.35-9.32,1.19-19.79S396.25,245.75,398.14,246.2Z" style="fill:#fff"></path><path d="M396.41,286.47l-7.59-1.84c-.45-.11-1.82-.44-1.45-6.66a82.24,82.24,0,0,1,2.26-13.74c1.9-7.82,5.78-19.2,8.63-18.51l7.59,1.84-.11.49ZM398,246.68c-1.1,0-4.47,5.89-7.35,17.78A80.47,80.47,0,0,0,388.37,278c-.27,4.42.4,5.56.68,5.63l6.63,1.61,9-37L398,246.69Z" style="fill:#263238"></path><path d="M397.23,266.07c-2.54,10.48-3.07,19.34-1.18,19.8s5.47-7.66,8-18.14,3.07-19.34,1.18-19.8S399.77,255.59,397.23,266.07Z" style="fill:#263238"></path><path d="M396.18,286.39a1.07,1.07,0,0,1-.25,0c-.45-.11-1.82-.45-1.45-6.66A82.51,82.51,0,0,1,396.74,266h0c1.9-7.82,5.77-19.19,8.63-18.51.45.11,1.82.45,1.45,6.66a82.64,82.64,0,0,1-2.27,13.75C402.71,275.44,399,286.39,396.18,286.39Zm8.89-38c-1.1,0-4.47,5.89-7.35,17.78h0a80.47,80.47,0,0,0-2.24,13.57c-.27,4.41.4,5.56.68,5.62,1,.3,4.48-5.63,7.42-17.77A81.5,81.5,0,0,0,405.82,254c.27-4.41-.41-5.56-.69-5.62Z" style="fill:#263238"></path><path d="M391.74,162.14l7.2-1.29,6.87,38.43-7.2,1.29c-1.91.34-5-8-6.9-18.6S389.83,162.48,391.74,162.14Z" style="fill:#fff"></path><path d="M398.44,201.09c-.61,0-1.9-.54-3.75-5.54a93.16,93.16,0,0,1-4.89-27.35c0-6.22,1.39-6.47,1.85-6.55l7.7-1.38,7,39.42-7.69,1.37A1.56,1.56,0,0,1,398.44,201.09Zm-6.61-38.46c-.29.05-1,1.15-1,5.57a80.09,80.09,0,0,0,1.41,13.68,80.12,80.12,0,0,0,3.42,13.32c1.53,4.15,2.59,4.93,2.89,4.88l6.71-1.2-6.69-37.45Z" style="fill:#263238"></path><ellipse cx="402.38" cy="180.06" rx="3.52" ry="19.52" transform="translate(-25.41 73.63) rotate(-10.14)" style="fill:#263238"></ellipse><path d="M405.71,199.79c-2.85,0-5.9-11.27-7.29-19A83.16,83.16,0,0,1,397,166.91c0-6.22,1.4-6.47,1.85-6.55,2.86-.53,6.07,11.07,7.48,19a82.23,82.23,0,0,1,1.43,13.86c0,6.22-1.4,6.47-1.86,6.55Zm-6.63-38.45H399c-.28,0-1,1.15-1,5.58a82.37,82.37,0,0,0,1.41,13.68c2.16,12.11,5.19,18.19,6.27,18.19h.05c.28,0,1-1.15,1-5.58a82.37,82.37,0,0,0-1.41-13.68C403.18,167.42,400.16,161.34,399.08,161.34Z" style="fill:#263238"></path><path d="M100.78,248.6h0a4.69,4.69,0,0,1,6.43,2.22l4.07,10.39c.91,2.39.17,4.88-1.84,5.85h0a4.55,4.55,0,0,1-5.77-2.28l-5.2-9.87A4.61,4.61,0,0,1,100.78,248.6Z" style="fill:#fff"></path><path d="M107.84,267.91a5.35,5.35,0,0,1-4.61-2.9L98,255.14a4.86,4.86,0,0,1-.32-3.81,5.42,5.42,0,0,1,2.86-3.18h0A5.52,5.52,0,0,1,105,248a4.62,4.62,0,0,1,2.68,2.66L111.75,261c1,2.68.14,5.41-2.09,6.48A4.3,4.3,0,0,1,107.84,267.91ZM103,248.6a4.58,4.58,0,0,0-2,.45h0a4.44,4.44,0,0,0-2.34,2.59,3.85,3.85,0,0,0,.26,3l5.2,9.87a4.07,4.07,0,0,0,5.12,2.07c1.75-.85,2.42-3,1.59-5.22L106.74,251a3.64,3.64,0,0,0-2.12-2.09A4.48,4.48,0,0,0,103,248.6Z" style="fill:#263238"></path><path d="M91.07,253.77h0a4.61,4.61,0,0,1,6.49,1.63l5.29,9.82a4.55,4.55,0,0,1-1.37,6.08h0a4.19,4.19,0,0,1-3.19.38,5,5,0,0,1-2.8-2.08l-6.09-9.35a4.45,4.45,0,0,1-.58-3.51A4.76,4.76,0,0,1,91.07,253.77Z" style="fill:#fff"></path><path d="M99.46,272.33a4.89,4.89,0,0,1-1.3-.17,5.47,5.47,0,0,1-3.09-2.28L89,260.53a4.93,4.93,0,0,1-.64-3.91A5.44,5.44,0,0,1,95,252.75a4.79,4.79,0,0,1,3,2.42l5.29,9.81a5.07,5.07,0,0,1-1.55,6.75A4.52,4.52,0,0,1,99.46,272.33Zm-5.88-18.77a4.36,4.36,0,0,0-2.25.64h0a4.21,4.21,0,0,0-2,2.65,3.93,3.93,0,0,0,.51,3.12l6.09,9.35a4.45,4.45,0,0,0,2.52,1.87,3.7,3.7,0,0,0,2.8-.33,4.07,4.07,0,0,0,1.18-5.42l-5.29-9.81a3.89,3.89,0,0,0-2.42-1.93A4.31,4.31,0,0,0,93.58,253.56Z" style="fill:#263238"></path><path d="M81.92,259.79h0a4.61,4.61,0,0,1,6.62,1l6.17,9.29a4.57,4.57,0,0,1-.8,6.19h0a4.12,4.12,0,0,1-3.12.66,5,5,0,0,1-3-1.8l-7-8.73A4.4,4.4,0,0,1,80,263,4.82,4.82,0,0,1,81.92,259.79Z" style="fill:#fff"></path><path d="M91.56,277.53a5,5,0,0,1-.86-.08,5.52,5.52,0,0,1-3.29-2l-7-8.73a4.86,4.86,0,0,1-1-3.83,5.26,5.26,0,0,1,2.18-3.52,5.43,5.43,0,0,1,4.14-.95A4.78,4.78,0,0,1,89,260.54l6.17,9.29a5.07,5.07,0,0,1-.93,6.86A4.64,4.64,0,0,1,91.56,277.53Zm-6.74-18.19a4.48,4.48,0,0,0-2.61.86h0a4.21,4.21,0,0,0-1.76,2.85,3.85,3.85,0,0,0,.8,3.05l6.94,8.72a4.48,4.48,0,0,0,2.69,1.63,3.62,3.62,0,0,0,2.75-.59,4.06,4.06,0,0,0,.66-5.49l-6.17-9.29a3.82,3.82,0,0,0-2.53-1.68A3.94,3.94,0,0,0,84.82,259.34Z" style="fill:#263238"></path><path d="M73.34,266.71h0a5,5,0,0,1,3.53-1.28A4.35,4.35,0,0,1,80,267.05l7,8.67A5,5,0,0,1,88.2,279a3.93,3.93,0,0,1-1.29,2.92h0a3.69,3.69,0,0,1-1.43.77,3.88,3.88,0,0,1-1.6.18,5,5,0,0,1-3.14-1.49l-7.81-8a4.34,4.34,0,0,1-1.25-3.34,5,5,0,0,1,.45-1.83A5.39,5.39,0,0,1,73.34,266.71Z" style="fill:#fff"></path><path d="M84.23,283.4l-.39,0a5.42,5.42,0,0,1-3.45-1.64l-7.82-8a4.86,4.86,0,0,1-1.39-3.72,5.36,5.36,0,0,1,.5-2A5.49,5.49,0,0,1,73,266.34h0a5.47,5.47,0,0,1,3.87-1.41,4.84,4.84,0,0,1,3.54,1.81l7,8.66A5.53,5.53,0,0,1,88.7,279a4.41,4.41,0,0,1-1.46,3.29,4.23,4.23,0,0,1-1.62.87A4.5,4.5,0,0,1,84.23,283.4ZM73.67,267.09h0a4.7,4.7,0,0,0-1.09,1.4,4.34,4.34,0,0,0-.4,1.62,3.9,3.9,0,0,0,1.1,3l7.82,8a4.47,4.47,0,0,0,2.82,1.35,3.42,3.42,0,0,0,1.4-.17,3.16,3.16,0,0,0,1.26-.66A3.45,3.45,0,0,0,87.7,279a4.61,4.61,0,0,0-1-3l-7-8.66a3.85,3.85,0,0,0-2.8-1.44A4.61,4.61,0,0,0,73.67,267.09Z" style="fill:#263238"></path><path d="M65.46,274.56h0a4.84,4.84,0,0,1,3.38-1.69,4.45,4.45,0,0,1,3.35,1.29l7.9,7.88a5,5,0,0,1,1.46,3.14,4.14,4.14,0,0,1-.93,3h0a3.9,3.9,0,0,1-2.92,1.23,4.94,4.94,0,0,1-3.26-1.12l-8.68-7a4.46,4.46,0,0,1-1.64-3.21A5.11,5.11,0,0,1,65.46,274.56Z" style="fill:#fff"></path><path d="M77.51,289.93a5.42,5.42,0,0,1-3.39-1.23l-8.68-7a5,5,0,0,1-1.82-3.56,5.61,5.61,0,0,1,1.47-3.9h0a5.37,5.37,0,0,1,3.74-1.85,4.9,4.9,0,0,1,3.71,1.44l7.9,7.87a5.39,5.39,0,0,1,1.6,3.46,4.55,4.55,0,0,1-1.06,3.4,4.35,4.35,0,0,1-3.28,1.39Zm-11.68-15a4.58,4.58,0,0,0-1.21,3.18,3.93,3.93,0,0,0,1.45,2.83l8.68,7a4.36,4.36,0,0,0,2.93,1,3.41,3.41,0,0,0,2.56-1.06,3.63,3.63,0,0,0,.81-2.67,4.43,4.43,0,0,0-1.32-2.81l-7.9-7.88a3.87,3.87,0,0,0-3-1.14A4.33,4.33,0,0,0,65.83,274.9Z" style="fill:#263238"></path><path d="M58.43,283.34h0a4.33,4.33,0,0,1,1.46-1.4,4.9,4.9,0,0,1,1.77-.67,4.33,4.33,0,0,1,3.46.86l8.76,6.9a5.11,5.11,0,0,1,1.84,3,3.87,3.87,0,0,1,0,1.59,4.75,4.75,0,0,1-.6,1.46h0c-1.16,1.79-3.9,2.16-6.08.85L59.55,290A4.68,4.68,0,0,1,58.43,283.34Z" style="fill:#fff"></path><path d="M71.8,297.17a5.93,5.93,0,0,1-3-.85l-9.5-5.86a4.69,4.69,0,0,1-2.14-3,5.7,5.7,0,0,1,.86-4.38,4.85,4.85,0,0,1,1.62-1.56,5.33,5.33,0,0,1,1.94-.73,4.76,4.76,0,0,1,3.86,1l8.76,6.9a5.52,5.52,0,0,1,2,3.25,4.32,4.32,0,0,1,0,1.79,5.28,5.28,0,0,1-.66,1.62A4.4,4.4,0,0,1,71.8,297.17ZM62.44,281.7a4.23,4.23,0,0,0-.7.06,4.56,4.56,0,0,0-1.59.61,3.81,3.81,0,0,0-1.29,1.23h0a4.75,4.75,0,0,0-.73,3.62,3.71,3.71,0,0,0,1.69,2.38l9.5,5.85c2,1.18,4.38.87,5.4-.69a4.25,4.25,0,0,0,.53-1.29,3.48,3.48,0,0,0,0-1.4,4.56,4.56,0,0,0-1.66-2.65l-8.76-6.91A3.79,3.79,0,0,0,62.44,281.7Z" style="fill:#263238"></path><path d="M52.56,293.06h0c1.37-2.52,4.25-3.48,6.42-2.14l9.57,5.73c2.18,1.33,3.13,3.93,2.11,5.8h0a3.34,3.34,0,0,1-1,1.16,3.39,3.39,0,0,1-1.26.49,6.67,6.67,0,0,1-3.42-.31l-10.45-3.9a3.84,3.84,0,0,1-2.39-2.75,5.91,5.91,0,0,1-.15-2.16A5.67,5.67,0,0,1,52.56,293.06Z" style="fill:#fff"></path><path d="M67.22,304.7a7.17,7.17,0,0,1-2.46-.44l-10.46-3.9a4.36,4.36,0,0,1-2.7-3.09,6.47,6.47,0,0,1-.16-2.34,6,6,0,0,1,.68-2.11A5.73,5.73,0,0,1,55.6,290a4.61,4.61,0,0,1,3.65.51l9.56,5.73c2.41,1.48,3.43,4.38,2.29,6.47A4,4,0,0,1,69.9,304a3.88,3.88,0,0,1-1.46.57A6.92,6.92,0,0,1,67.22,304.7ZM56.85,290.81a3.76,3.76,0,0,0-1,.14A4.69,4.69,0,0,0,53,293.3h0a4.86,4.86,0,0,0-.56,1.74,5.34,5.34,0,0,0,.13,2,3.36,3.36,0,0,0,2.08,2.41l10.46,3.9a6,6,0,0,0,3.14.29,2.84,2.84,0,0,0,1.08-.41,2.9,2.9,0,0,0,.89-1c.89-1.63,0-3.93-1.93-5.13l-9.56-5.74A3.59,3.59,0,0,0,56.85,290.81Z" style="fill:#263238"></path><path d="M48.26,305.41h0a7,7,0,0,1,.77-2.22,6,6,0,0,1,1.47-1.58,3.88,3.88,0,0,1,3.59-.62l10.58,3.54a6.44,6.44,0,0,1,2.84,1.92,3.42,3.42,0,0,1,.68,1.18,2.24,2.24,0,0,1,.16,1.24h0a2.53,2.53,0,0,1-.56,1.12,3.45,3.45,0,0,1-1.05.94,6.26,6.26,0,0,1-3.34.87l-11.15-.34a3.93,3.93,0,0,1-3.15-1.77,5.63,5.63,0,0,1-.84-1.93A6,6,0,0,1,48.26,305.41Z" style="fill:#fff"></path><path d="M63.57,312.3h-.18L52.24,312a4.39,4.39,0,0,1-3.55-2,6.19,6.19,0,0,1-.92-2.09,6.55,6.55,0,0,1,0-2.55h0a7.63,7.63,0,0,1,.83-2.38,6.33,6.33,0,0,1,1.62-1.74,4.34,4.34,0,0,1,4-.69l10.58,3.53a7.06,7.06,0,0,1,3.07,2.08,4.09,4.09,0,0,1,.77,1.36,2.66,2.66,0,0,1,.17,1.47,3.18,3.18,0,0,1-.64,1.33,4.06,4.06,0,0,1-1.2,1.07A6.64,6.64,0,0,1,63.57,312.3Zm-14.82-6.8a5.67,5.67,0,0,0,0,2.14,5.12,5.12,0,0,0,.77,1.76A3.43,3.43,0,0,0,52.27,311l11.15.34a5.59,5.59,0,0,0,3.06-.8,3,3,0,0,0,.91-.8,2.3,2.3,0,0,0,.47-.9,1.72,1.72,0,0,0-.14-1,3,3,0,0,0-.59-1.05A6,6,0,0,0,64.51,305l-10.58-3.53a3.35,3.35,0,0,0-3.13.55,5.5,5.5,0,0,0-1.35,1.44A6.64,6.64,0,0,0,48.75,305.5Z" style="fill:#263238"></path><path d="M48,318.33h0a6.58,6.58,0,0,1,.12-2.23,5.21,5.21,0,0,1,.91-1.86,4,4,0,0,1,3.23-1.65l11.16,0a6,6,0,0,1,3.29,1,3.92,3.92,0,0,1,1,1,2.58,2.58,0,0,1,.51,1.26h0a3.58,3.58,0,0,1-.94,2.62,5.82,5.82,0,0,1-3,1.77l-10.86,2.56A4,4,0,0,1,50,322,5.3,5.3,0,0,1,48,318.33Z" style="fill:#fff"></path><path d="M52.53,323.45a4.61,4.61,0,0,1-2.88-1,5.85,5.85,0,0,1-2.16-4,7.17,7.17,0,0,1,.13-2.41,5.65,5.65,0,0,1,1-2,4.48,4.48,0,0,1,3.6-1.85h0l11.16,0A6.4,6.4,0,0,1,67,313.21a4.53,4.53,0,0,1,1.14,1.13,3.08,3.08,0,0,1,.61,1.49,4.1,4.1,0,0,1-1.06,3,6.24,6.24,0,0,1-3.24,1.94l-10.86,2.55A4.17,4.17,0,0,1,52.53,323.45Zm-.3-10.36a3.52,3.52,0,0,0-2.81,1.45,4.86,4.86,0,0,0-.83,1.68,6.12,6.12,0,0,0-.1,2.06h0a4.79,4.79,0,0,0,1.78,3.33,3.54,3.54,0,0,0,3.07.73l10.86-2.56a5.22,5.22,0,0,0,2.71-1.61,3.1,3.1,0,0,0,.82-2.26,2,2,0,0,0-.42-1,3.32,3.32,0,0,0-.89-.9,5.51,5.51,0,0,0-3-.91l-11.15,0Z" style="fill:#263238"></path><path d="M50.92,330.32h0a5.94,5.94,0,0,1-.38-2.12,5.17,5.17,0,0,1,.46-1.95,4.09,4.09,0,0,1,2.73-2.35l10.8-2.79a5.56,5.56,0,0,1,3.45.2,3.78,3.78,0,0,1,1.25.8,3.06,3.06,0,0,1,.83,1.19h0a2.93,2.93,0,0,1,.14,1.44,3.9,3.9,0,0,1-.43,1.45,5.45,5.45,0,0,1-2.5,2.4l-10.08,4.77a4.15,4.15,0,0,1-3.59,0,5,5,0,0,1-1.6-1.16A6,6,0,0,1,50.92,330.32Z" style="fill:#fff"></path><path d="M55.43,334.26a4.81,4.81,0,0,1-2-.46,5.82,5.82,0,0,1-1.76-1.28,6.75,6.75,0,0,1-1.18-2h0a6.32,6.32,0,0,1-.41-2.3,5.8,5.8,0,0,1,.51-2.15,4.56,4.56,0,0,1,3.05-2.62l10.8-2.8a6.2,6.2,0,0,1,3.77.22,4.36,4.36,0,0,1,1.42.92,3.48,3.48,0,0,1,.94,1.37,3.38,3.38,0,0,1,.16,1.68,4.45,4.45,0,0,1-.47,1.61A6,6,0,0,1,67.49,329L57.4,333.81A4.54,4.54,0,0,1,55.43,334.26Zm-4-4.11a5.43,5.43,0,0,0,1,1.7,4.58,4.58,0,0,0,1.43,1,3.67,3.67,0,0,0,3.17,0l10.08-4.78A5,5,0,0,0,69.33,326a3.56,3.56,0,0,0,.37-1.28,2.35,2.35,0,0,0-.11-1.22,2.62,2.62,0,0,0-.69-1,3.31,3.31,0,0,0-1.11-.71,5.16,5.16,0,0,0-3.14-.18l-10.8,2.8a3.54,3.54,0,0,0-2.39,2.06,4.75,4.75,0,0,0-.42,1.78,5.26,5.26,0,0,0,.35,1.92Z" style="fill:#263238"></path><path d="M56.12,341.1h0a5,5,0,0,1-.74-2,5.13,5.13,0,0,1,.07-2,4.09,4.09,0,0,1,2.19-2.81l10-5a5.45,5.45,0,0,1,3.45-.48,3.86,3.86,0,0,1,1.43.56,4,4,0,0,1,1,1.06h0a3.61,3.61,0,0,1,.29,3,5.22,5.22,0,0,1-2,2.81l-9,6.54a4.28,4.28,0,0,1-3.54.68A5.33,5.33,0,0,1,56.12,341.1Z" style="fill:#fff"></path><path d="M60.35,344.14a5.28,5.28,0,0,1-1.18-.14,5.77,5.77,0,0,1-3.47-2.63,5.24,5.24,0,0,1-.81-2.19,5.63,5.63,0,0,1,.07-2.13,4.6,4.6,0,0,1,2.46-3.15l10-5a6,6,0,0,1,3.77-.52,4.35,4.35,0,0,1,1.61.64A4.6,4.6,0,0,1,74,330.24a4.09,4.09,0,0,1,.36,3.37,5.75,5.75,0,0,1-2.18,3.09l-9,6.54A4.7,4.7,0,0,1,60.35,344.14ZM70.1,329.3a5.09,5.09,0,0,0-2.25.53l-10,5a3.61,3.61,0,0,0-1.92,2.48,4.37,4.37,0,0,0-.06,1.77,4.18,4.18,0,0,0,.66,1.78h0A4.82,4.82,0,0,0,59.39,343a3.77,3.77,0,0,0,3.14-.59l9-6.54a4.82,4.82,0,0,0,1.79-2.54,3.2,3.2,0,0,0-.23-2.56,3.54,3.54,0,0,0-.9-.91,3.29,3.29,0,0,0-1.24-.49A4.41,4.41,0,0,0,70.1,329.3Z" style="fill:#263238"></path><path d="M63.11,350.61h0a5.52,5.52,0,0,1-1.35-3.73,4.26,4.26,0,0,1,1.7-3.18L72.38,337a5.29,5.29,0,0,1,3.28-1.07,3.52,3.52,0,0,1,2.74,1.18h0c1.38,1.47,1.08,4.17-.64,6l-7.76,8C68.22,353,65.13,352.8,63.11,350.61Z" style="fill:#fff"></path><path d="M67,352.91h0a5.88,5.88,0,0,1-4.22-2v0a6,6,0,0,1-1.47-4.07,4.77,4.77,0,0,1,1.9-3.56l8.92-6.69a5.67,5.67,0,0,1,3.59-1.17,4,4,0,0,1,3.12,1.36c1.53,1.64,1.24,4.63-.67,6.66l-7.76,8A4.58,4.58,0,0,1,67,352.91Zm-3.5-2.63A4.82,4.82,0,0,0,67,351.91a3.68,3.68,0,0,0,2.66-1.12l7.77-8c1.52-1.62,1.81-4,.64-5.31a3.08,3.08,0,0,0-2.39-1,4.77,4.77,0,0,0-3,1l-8.92,6.69a3.76,3.76,0,0,0-1.5,2.81A5,5,0,0,0,63.49,350.28Z" style="fill:#263238"></path><path d="M71.67,358.72h0a5.11,5.11,0,0,1-2-3.44,4.23,4.23,0,0,1,1.11-3.41l7.62-8.15a5.32,5.32,0,0,1,3-1.63,3.84,3.84,0,0,1,2.9.67h0a3.09,3.09,0,0,1,.9,1.19,4,4,0,0,1,.41,1.48,5.36,5.36,0,0,1-.91,3.34L78.56,358a4.2,4.2,0,0,1-3.08,1.84,5.27,5.27,0,0,1-2-.16A5.78,5.78,0,0,1,71.67,358.72Z" style="fill:#fff"></path><path d="M74.92,360.41a5.81,5.81,0,0,1-1.53-.21,6.16,6.16,0,0,1-2-1.09h0a5.51,5.51,0,0,1-2.17-3.78,4.71,4.71,0,0,1,1.23-3.81L78,343.38a5.8,5.8,0,0,1,3.35-1.79,4.29,4.29,0,0,1,3.28.78,3.58,3.58,0,0,1,1,1.38,4.18,4.18,0,0,1,.44,1.64,5.83,5.83,0,0,1-1,3.66L79,358.32a4.67,4.67,0,0,1-3.44,2.06A6.08,6.08,0,0,1,74.92,360.41Zm7.19-17.86a3.65,3.65,0,0,0-.59,0,4.79,4.79,0,0,0-2.75,1.47l-7.62,8.15a3.73,3.73,0,0,0-1,3,4.58,4.58,0,0,0,1.8,3.1h0a5.16,5.16,0,0,0,1.69.91,4.52,4.52,0,0,0,1.75.14,3.68,3.68,0,0,0,2.72-1.61l6.21-9.28a5,5,0,0,0,.82-3,3.51,3.51,0,0,0-.35-1.28,2.76,2.76,0,0,0-.77-1A3.07,3.07,0,0,0,82.11,342.55Z" style="fill:#263238"></path><path d="M81.6,365.24h0a5.29,5.29,0,0,1-2.6-3,4.1,4.1,0,0,1,.44-3.54l6-9.38a5.54,5.54,0,0,1,2.72-2.19,3.63,3.63,0,0,1,2.93.13h0a3.43,3.43,0,0,1,1.74,2.37,5.32,5.32,0,0,1-.26,3.42L88.29,363.3a4.24,4.24,0,0,1-2.7,2.41A5.57,5.57,0,0,1,81.6,365.24Z" style="fill:#fff"></path><path d="M84.26,366.39a6.47,6.47,0,0,1-2.88-.7h0a5.79,5.79,0,0,1-2.85-3.34,4.59,4.59,0,0,1,.49-4l6-9.38a6.18,6.18,0,0,1,3-2.38,4.08,4.08,0,0,1,3.32.15,3.93,3.93,0,0,1,2,2.7,5.72,5.72,0,0,1-.28,3.73l-4.31,10.29a4.81,4.81,0,0,1-3,2.7A5.68,5.68,0,0,1,84.26,366.39Zm-2.43-1.59a5.1,5.1,0,0,0,3.62.43,3.72,3.72,0,0,0,2.38-2.13l4.32-10.28a4.88,4.88,0,0,0,.24-3.1,3,3,0,0,0-1.48-2.05,3.16,3.16,0,0,0-2.54-.11,5.11,5.11,0,0,0-2.47,2l-6,9.38a3.61,3.61,0,0,0-.38,3.11,4.76,4.76,0,0,0,2.35,2.76Z" style="fill:#263238"></path><path d="M92.76,369.78h0a5.41,5.41,0,0,1-3.21-2.46,4.26,4.26,0,0,1-.25-3.62l4.12-10.37a5.32,5.32,0,0,1,2.21-2.62,3.5,3.5,0,0,1,2.86-.5h0a3.66,3.66,0,0,1,2.14,1.94,5.61,5.61,0,0,1,.43,3.44l-2.1,11a4.08,4.08,0,0,1-2.15,2.86A5.2,5.2,0,0,1,92.76,369.78Z" style="fill:#fff"></path><path d="M94.32,370.53a5.26,5.26,0,0,1-1.72-.28,5.83,5.83,0,0,1-3.49-2.7,4.69,4.69,0,0,1-.27-4L93,353.15a5.82,5.82,0,0,1,2.43-2.87,4,4,0,0,1,3.27-.54,4.15,4.15,0,0,1,2.43,2.19,6,6,0,0,1,.47,3.76l-2.1,10.95a4.55,4.55,0,0,1-2.4,3.22A6,6,0,0,1,94.32,370.53Zm3.35-19.95a3.71,3.71,0,0,0-1.79.56,4.9,4.9,0,0,0-2,2.38l-4.11,10.37a3.74,3.74,0,0,0,.22,3.19,4.94,4.94,0,0,0,2.92,2.22h0a4.71,4.71,0,0,0,3.66-.34,3.59,3.59,0,0,0,1.89-2.51l2.1-11a5.18,5.18,0,0,0-.39-3.14,3.18,3.18,0,0,0-1.86-1.68A2.05,2.05,0,0,0,97.67,350.58Z" style="fill:#263238"></path><path d="M104.74,371.94h0a5.28,5.28,0,0,1-3.69-1.76,4.06,4.06,0,0,1-1-3.44l1.87-11a5.64,5.64,0,0,1,1.6-3.08,3.67,3.67,0,0,1,2.66-1.07h0a3.38,3.38,0,0,1,2.48,1.46,5.38,5.38,0,0,1,1.16,3.22l.32,11.15a4.26,4.26,0,0,1-1.48,3.32A5.63,5.63,0,0,1,104.74,371.94Z" style="fill:#fff"></path><path d="M105.07,372.44h-.34a5.78,5.78,0,0,1-4-1.92,4.57,4.57,0,0,1-1.13-3.86l1.86-11a6.14,6.14,0,0,1,1.76-3.35,4.17,4.17,0,0,1,3-1.21,3.84,3.84,0,0,1,2.87,1.65,5.83,5.83,0,0,1,1.27,3.51l.32,11.15a4.71,4.71,0,0,1-1.65,3.71A6.05,6.05,0,0,1,105.07,372.44Zm1.08-20.34a3.17,3.17,0,0,0-2.28.92,5.22,5.22,0,0,0-1.47,2.81l-1.87,11a3.55,3.55,0,0,0,.9,3,4.7,4.7,0,0,0,3.32,1.59h0a5.19,5.19,0,0,0,3.55-1.07,3.74,3.74,0,0,0,1.31-2.93l-.32-11.15a4.89,4.89,0,0,0-1-2.91A3,3,0,0,0,106.15,352.1Z" style="fill:#263238"></path><path d="M116.93,371.45h0a5.49,5.49,0,0,1-4-.88,4.2,4.2,0,0,1-1.73-3.19l-.56-11.14a5.43,5.43,0,0,1,.9-3.3,3.52,3.52,0,0,1,2.37-1.66h0a3.84,3.84,0,0,1,2.76.87,5.54,5.54,0,0,1,1.83,2.93l2.67,10.83a4.13,4.13,0,0,1-.75,3.52A5.09,5.09,0,0,1,116.93,371.45Z" style="fill:#fff"></path><path d="M116.06,372a5.62,5.62,0,0,1-3.39-1,4.66,4.66,0,0,1-1.94-3.56l-.56-11.14a5.88,5.88,0,0,1,1-3.61,3.9,3.9,0,0,1,2.73-1.87,4.31,4.31,0,0,1,3.12,1,6,6,0,0,1,2,3.2l2.67,10.83a4.64,4.64,0,0,1-.83,3.94A5.57,5.57,0,0,1,117,372,7.5,7.5,0,0,1,116.06,372Zm-1.79-20.24H114a3,3,0,0,0-2,1.45,4.86,4.86,0,0,0-.82,3l.55,11.14a3.73,3.73,0,0,0,1.55,2.81,4.89,4.89,0,0,0,3.6.79h0a4.59,4.59,0,0,0,3.17-1.83,3.61,3.61,0,0,0,.66-3.1l-2.66-10.83a5,5,0,0,0-1.67-2.66A3.29,3.29,0,0,0,114.27,351.77Z" style="fill:#263238"></path><path d="M160.85,157,147.43,141.1a5.36,5.36,0,0,1,.62-7.55l9.5-8.1a5.37,5.37,0,0,1,7.79.86l12.37,16.5S164,150.72,160.85,157Z" style="fill:#fff"></path><path d="M161,157.94l-13.91-16.52a5.88,5.88,0,0,1,.68-8.25l9.49-8.1a5.89,5.89,0,0,1,8.52.94l12.71,17-.49.28c-.13.08-13.6,7.91-16.66,14Zm.06-33.28a4.8,4.8,0,0,0-3.15,1.17l-9.49,8.1a4.88,4.88,0,0,0-.57,6.85l12.95,15.38c3.36-5.63,13.8-12.06,16.22-13.5l-12-16a4.83,4.83,0,0,0-3.36-1.92A5.25,5.25,0,0,0,161,124.66Z" style="fill:#263238"></path><circle cx="157.16" cy="136.49" r="3.69" style="fill:#fff"></circle><path d="M157.16,140.68a4.19,4.19,0,1,1,4.19-4.19A4.2,4.2,0,0,1,157.16,140.68Zm0-7.38a3.19,3.19,0,1,0,3.19,3.19A3.19,3.19,0,0,0,157.16,133.3Z" style="fill:#263238"></path><path d="M359.38,157l13.43-15.94a5.37,5.37,0,0,0-.63-7.55l-9.49-8.1a5.38,5.38,0,0,0-7.8.86l-12.37,16.5S356.22,150.72,359.38,157Z" style="fill:#fff"></path><path d="M359.28,157.94l-.34-.68c-3.06-6.12-16.53-13.94-16.67-14l-.49-.28,12.71-17a5.84,5.84,0,0,1,4.06-2.31,5.77,5.77,0,0,1,4.46,1.37l9.5,8.1a5.89,5.89,0,0,1,.68,8.25Zm-16-15.28c2.42,1.44,12.86,7.87,16.21,13.5l12.95-15.38a4.88,4.88,0,0,0-.56-6.85l-9.5-8.1a4.87,4.87,0,0,0-7.06.78Z" style="fill:#263238"></path><circle cx="363.07" cy="136.49" r="3.69" style="fill:#fff"></circle><path d="M363.07,140.68a4.19,4.19,0,1,1,4.19-4.19A4.2,4.2,0,0,1,363.07,140.68Zm0-7.38a3.19,3.19,0,1,0,3.19,3.19A3.2,3.2,0,0,0,363.07,133.3Z" style="fill:#263238"></path><path d="M359.11,311.59c-38.68,30.36-164.72,33.47-200.45,0-29.92-28-29.67-131.63,0-159.9,35.43-33.76,169-37.14,200.45,0C385.48,182.79,391.49,286.17,359.11,311.59Z" style="fill:#263238"></path><path d="M254.62,336c-44.28,0-80.13-8.94-96.31-24.09C144.59,299.1,136,268.8,135.82,232.87c-.16-36.92,8.46-68.17,22.49-81.54C179.67,131,234.94,122.67,278.49,125c39,2.07,68.54,11.69,81,26.38,16.08,19,25.41,66.13,21.23,107.36-2.59,25.59-10.16,44.5-21.3,53.25-18.08,14.19-58,23.63-101.64,24ZM264,125.61c-40.41,0-86.1,8.48-105,26.45-13.63,13-22.34,44.71-22.18,80.81.15,35.66,8.65,65.68,22.18,78.35,16.13,15.11,54,24.25,98.77,23.81,43.46-.42,83.11-9.77,101-23.83h0c10.93-8.58,18.36-27.25,20.93-52.57,4.15-41-5.07-87.83-21-106.61-12.29-14.49-41.55-24-80.29-26C273.73,125.74,268.88,125.61,264,125.61Z" style="fill:#263238"></path><path d="M359.11,308.86c-38.68,30.36-164.72,33.47-200.45,0-29.92-28-29.67-131.63,0-159.9,35.43-33.76,169-37.14,200.45,0C385.48,180.05,391.49,283.44,359.11,308.86Z" style="fill:#fff"></path><path d="M254.62,333.31c-44.28,0-80.13-8.94-96.31-24.09-13.72-12.85-22.34-43.16-22.49-79.08-.16-36.92,8.46-68.17,22.49-81.54,21.36-20.35,76.63-28.66,120.18-26.34,39,2.07,68.54,11.69,81,26.38,16.08,19,25.41,66.13,21.23,107.36-2.59,25.59-10.16,44.5-21.3,53.25l-.31-.39.31.39c-18.08,14.19-58,23.63-101.64,24.05ZM264,122.88c-40.41,0-86.1,8.48-105,26.44-13.63,13-22.34,44.71-22.18,80.82.15,35.65,8.65,65.68,22.18,78.35,16.13,15.11,54,24.25,98.77,23.81,43.46-.42,83.11-9.77,101-23.84,10.93-8.58,18.36-27.24,20.93-52.56,4.15-41-5.07-87.83-21-106.61-12.29-14.49-41.55-24-80.29-26C273.73,123,268.88,122.88,264,122.88Z" style="fill:#263238"></path><path d="M359.11,306c-38.68,30.36-164.72,33.48-200.45,0-29.92-28-29.67-131.62,0-159.89,35.43-33.76,169-37.14,200.45,0C385.48,177.18,391.49,280.57,359.11,306Z" style="fill:#fff"></path><path d="M254.62,330.44c-44.28,0-80.13-8.94-96.31-24.09-13.72-12.86-22.34-43.16-22.49-79.08-.16-36.93,8.46-68.17,22.49-81.54,21.36-20.35,76.63-28.66,120.18-26.35,39,2.08,68.54,11.69,81,26.39,16.08,19,25.41,66.12,21.23,107.36-2.59,25.59-10.16,44.5-21.3,53.25-18.08,14.19-58,23.63-101.64,24ZM264,120c-40.41,0-86.1,8.47-105,26.44-13.63,13-22.34,44.71-22.18,80.82.15,35.65,8.65,65.67,22.18,78.35,16.13,15.11,54,24.24,98.77,23.8,43.46-.41,83.11-9.77,101-23.83h0c10.93-8.58,18.36-27.25,20.93-52.56,4.15-41-5.07-87.83-21-106.62-12.29-14.48-41.55-24-80.29-26C273.73,120.13,268.88,120,264,120Z" style="fill:#263238"></path><path d="M158.66,155.86c-14.14,13.46-21.59,44-22.29,75.37.7,31.19,8.1,61.47,22.29,74.75,35.73,33.48,161.77,30.36,200.45,0,14.58-11.44,21.37-38.68,22-68-.75-32.92-8.84-66.55-22-82.1C327.61,118.72,194.09,122.09,158.66,155.86Z" style="fill:#fff"></path><path d="M254.62,330.44c-44.28,0-80.13-8.94-96.31-24.09-13.27-12.44-21.66-40.51-22.44-75.11.77-34.27,9.37-63.28,22.44-75.74,21.36-20.36,76.63-28.67,120.18-26.35,39,2.08,68.54,11.69,81,26.39,12.66,14.92,21.35,47.27,22.15,82.41-.74,33-8.84,57.93-22.22,68.43-18.08,14.19-58,23.63-101.64,24Zm-96-174.58.34.36c-12.89,12.28-21.37,41-22.13,75,.76,33.8,9.24,62.31,22.13,74.38,16.13,15.11,54,24.23,98.77,23.8,43.46-.41,83.11-9.77,101-23.83,13.14-10.32,21.1-35,21.84-67.64-.8-34.9-9.4-67-21.91-81.77-12.29-14.48-41.55-24-80.29-26-43.34-2.3-98.28,5.91-119.44,26.07Z" style="fill:#263238"></path><path d="M260.54,155.48c43.31,0,82.69,10.27,112,27-3.52-11-8-20.34-13.4-26.66-31.5-37.14-165-33.77-200.45,0-6.93,6.59-12.24,17.3-15.95,30.18C172.49,167.2,214.27,155.48,260.54,155.48Z" style="fill:#263238"></path><path d="M141.87,187.16l.36-1.26c3.92-13.6,9.48-24.11,16.08-30.4,21.36-20.36,76.63-28.67,120.18-26.35,39,2.08,68.54,11.69,81,26.39,5.24,6.18,9.78,15.2,13.5,26.82l.39,1.23-1.12-.64c-30.38-17.39-70.06-27-111.72-27C215.8,156,174.05,166.8,143,186.46ZM264,129.77c-40.41,0-86.1,8.48-105,26.45-6.27,6-11.6,15.88-15.44,28.7,31.11-19.32,72.59-29.94,117-29.94,41.32,0,80.72,9.39,111.1,26.47-3.56-10.77-8-19.49-12.91-25.27-12.29-14.48-41.55-24-80.29-26C273.73,129.9,268.88,129.77,264,129.77Z" style="fill:#263238"></path><path d="M349.11,300.76c-34.82,27.34-148.31,30.14-180.48,0-26.94-25.23-26.72-118.52,0-144,31.9-30.4,152.12-33.44,180.48,0C372.86,184.79,378.27,277.88,349.11,300.76Z" style="fill:#263238"></path><path d="M255,322.83c-39.88,0-72.17-8.05-86.75-21.7-12.36-11.59-20.13-38.89-20.27-71.24-.14-33.26,7.62-61.41,20.27-73.46,19.24-18.34,69-25.82,108.25-23.73,35.14,1.86,61.74,10.53,73,23.77C364,173.56,372.39,216,368.63,253.18c-2.34,23.05-9.16,40.09-19.21,48h0c-16.28,12.78-52.22,21.28-91.54,21.66Zm8.4-189.47c-36.36,0-77.49,7.63-94.46,23.79-12.26,11.69-20.1,40.24-20,72.73.14,32.09,7.78,59.12,20,70.52,14.51,13.59,48.56,21.79,88.9,21.42,39.12-.38,74.81-8.8,90.94-21.45h0c9.83-7.72,16.51-24.51,18.82-47.29,3.74-36.91-4.56-79.06-18.9-96-11.05-13-37.39-21.57-72.25-23.42C272.23,133.47,267.87,133.36,263.43,133.36Z" style="fill:#fff"></path><path d="M336.72,376.8a10.5,10.5,0,0,1-3.07-20.54c18.28-5.6,43.53-22.21,43.79-22.38A10.5,10.5,0,0,1,389,351.39c-1.13.75-28,18.46-49.22,24.95A10.6,10.6,0,0,1,336.72,376.8Z" style="fill:#263238"></path><path d="M342.25,366.39a3.27,3.27,0,1,0-3.26,3.26A3.26,3.26,0,0,0,342.25,366.39Z" style="fill:#fff"></path><path d="M339,370.15a3.76,3.76,0,1,1,3.76-3.76A3.76,3.76,0,0,1,339,370.15Zm0-6.52a2.76,2.76,0,1,0,2.76,2.76A2.77,2.77,0,0,0,339,363.63Z" style="fill:#263238"></path><path d="M359.31,359a3.27,3.27,0,1,0-3.27,3.26A3.27,3.27,0,0,0,359.31,359Z" style="fill:#fff"></path><path d="M356,362.78a3.77,3.77,0,1,1,3.77-3.76A3.77,3.77,0,0,1,356,362.78Zm0-6.53a2.77,2.77,0,1,0,2.77,2.77A2.77,2.77,0,0,0,356,356.25Z" style="fill:#263238"></path><path d="M373.55,352.07a3.26,3.26,0,1,0-3.26,3.26A3.26,3.26,0,0,0,373.55,352.07Z" style="fill:#fff"></path><path d="M370.29,355.83a3.77,3.77,0,1,1,3.76-3.76A3.76,3.76,0,0,1,370.29,355.83Zm0-6.53a2.77,2.77,0,1,0,2.76,2.77A2.77,2.77,0,0,0,370.29,349.3Z" style="fill:#263238"></path><path d="M387.39,342.67a3.26,3.26,0,1,0-3.26,3.27A3.26,3.26,0,0,0,387.39,342.67Z" style="fill:#fff"></path><path d="M384.13,346.44a3.77,3.77,0,1,1,3.76-3.77A3.76,3.76,0,0,1,384.13,346.44Zm0-6.53a2.77,2.77,0,1,0,2.76,2.76A2.77,2.77,0,0,0,384.13,339.91Z" style="fill:#263238"></path><path d="M184.16,376.8a10.5,10.5,0,0,0,3.07-20.54c-18.28-5.6-43.53-22.21-43.79-22.38a10.5,10.5,0,0,0-11.58,17.51c1.13.75,28,18.46,49.22,24.95A10.6,10.6,0,0,0,184.16,376.8Z" style="fill:#263238"></path><path d="M178.63,366.39a3.26,3.26,0,1,1,3.26,3.26A3.26,3.26,0,0,1,178.63,366.39Z" style="fill:#fff"></path><path d="M181.89,370.15a3.76,3.76,0,1,1,3.76-3.76A3.76,3.76,0,0,1,181.89,370.15Zm0-6.52a2.76,2.76,0,1,0,2.76,2.76A2.77,2.77,0,0,0,181.89,363.63Z" style="fill:#263238"></path><path d="M161.57,359a3.27,3.27,0,1,1,3.27,3.26A3.26,3.26,0,0,1,161.57,359Z" style="fill:#fff"></path><path d="M164.84,362.78A3.77,3.77,0,1,1,168.6,359,3.77,3.77,0,0,1,164.84,362.78Zm0-6.53A2.77,2.77,0,1,0,167.6,359,2.77,2.77,0,0,0,164.84,356.25Z" style="fill:#263238"></path><path d="M147.32,352.07a3.27,3.27,0,1,1,3.27,3.26A3.27,3.27,0,0,1,147.32,352.07Z" style="fill:#fff"></path><path d="M150.59,355.83a3.77,3.77,0,1,1,3.76-3.76A3.77,3.77,0,0,1,150.59,355.83Zm0-6.53a2.77,2.77,0,1,0,2.76,2.77A2.77,2.77,0,0,0,150.59,349.3Z" style="fill:#263238"></path><path d="M133.49,342.67a3.26,3.26,0,1,1,3.26,3.27A3.26,3.26,0,0,1,133.49,342.67Z" style="fill:#fff"></path><path d="M136.75,346.44a3.77,3.77,0,1,1,3.76-3.77A3.76,3.76,0,0,1,136.75,346.44Zm0-6.53a2.77,2.77,0,1,0,2.76,2.76A2.77,2.77,0,0,0,136.75,339.91Z" style="fill:#263238"></path><path d="M260.51,411.56c-58,0-112.33-19.43-153.06-54.71A6.5,6.5,0,1,1,116,347c38.36,33.24,89.7,51.54,144.55,51.54,54.18,0,105.07-17.92,143.3-50.46a6.5,6.5,0,0,1,8.42,9.9C371.66,392.54,317.78,411.56,260.51,411.56Z" style="fill:#fff"></path><path d="M260.51,412.06c-58.1,0-112.57-19.47-153.39-54.83a7,7,0,0,1,9.17-10.59c38.27,33.16,89.49,51.42,144.22,51.42,54.06,0,104.84-17.88,143-50.34a7,7,0,1,1,9.08,10.66C371.89,393,317.89,412.06,260.51,412.06Zm-148.8-66.12a6,6,0,0,0-3.93,10.53c40.63,35.2,94.87,54.59,152.73,54.59,57.15,0,110.91-19,151.4-53.44a6,6,0,0,0-7.78-9.14c-38.32,32.62-89.32,50.58-143.62,50.58-55,0-106.42-18.35-144.88-51.66A6,6,0,0,0,111.71,345.94Z" style="fill:#263238"></path><circle cx="188.43" cy="203.43" r="10.7" transform="translate(-88.65 192.83) rotate(-45)" style="fill:#e8e8e8"></circle><circle cx="260.12" cy="180.92" r="7.39" style="fill:#e8e8e8"></circle><circle cx="216.79" cy="269.05" r="10.96" transform="translate(-56.67 57.85) rotate(-13.46)" style="fill:#e8e8e8"></circle><circle cx="320.97" cy="175.45" r="5.48" style="fill:#e8e8e8"></circle><circle cx="244.74" cy="287.14" r="5.48" style="fill:#e8e8e8"></circle><path d="M304.77,197.57c-4.28-.66-4.82-1.2-5.48-5.47-.67,4.27-1.2,4.81-5.48,5.47,4.28.67,4.81,1.21,5.48,5.48C300,198.78,300.49,198.24,304.77,197.57Z" style="fill:#e8e8e8"></path><path d="M318.77,302.74c-4.28-.66-4.82-1.2-5.48-5.48-.67,4.28-1.21,4.82-5.48,5.48,4.27.66,4.81,1.2,5.48,5.48C314,303.94,314.49,303.4,318.77,302.74Z" style="fill:#e8e8e8"></path><path d="M343.82,206.78c-4.28-.66-4.81-1.2-5.48-5.48-.66,4.28-1.2,4.82-5.48,5.48,4.28.66,4.82,1.2,5.48,5.48C339,208,339.54,207.44,343.82,206.78Z" style="fill:#e8e8e8"></path><path d="M200.92,158.65c-4.28-.66-4.81-1.2-5.48-5.48-.66,4.28-1.2,4.82-5.48,5.48,4.28.67,4.82,1.21,5.48,5.48C196.11,159.86,196.64,159.32,200.92,158.65Z" style="fill:#e8e8e8"></path><circle cx="250.93" cy="226.05" r="22.02" transform="translate(-26.29 418.94) rotate(-76.84)" style="fill:#e8e8e8"></circle><path d="M228.91,226.05c0,.15,0,.31,0,.46l29.48-21.18a22,22,0,0,0-7.48-1.3c-.58,0-1.15,0-1.71.07L229,224.69C228.93,225.14,228.91,225.59,228.91,226.05Z" style="fill:#263238"></path><path d="M265.69,209.71a21.91,21.91,0,0,0-5.91-3.83l-16,16Z" style="fill:#263238"></path><path d="M243.79,236.76l29-13.35a22,22,0,0,0-2.28-7.43Z" style="fill:#263238"></path><path d="M229.56,220.76l18.3-16.51A22,22,0,0,0,229.56,220.76Z" style="fill:#263238"></path><path d="M257,247.22l7.06-9.86-17.42,10.28a22,22,0,0,0,4.32.42A22.25,22.25,0,0,0,257,247.22Z" style="fill:#263238"></path><path d="M239.62,229.62l-9.36,4a20.94,20.94,0,0,0,1.41,3.08Z" style="fill:#263238"></path><path d="M253.91,238.55,235.8,242a21.89,21.89,0,0,0,9,5.17Z" style="fill:#263238"></path><path d="M297.1,277.82a186,186,0,0,0-17.59,9.45,5.88,5.88,0,0,0-.5-1.72c11.65-6.53,41.87-22.84,74.79-35.45l-.36-.94c-33,12.64-63.25,29-74.92,35.52a6.12,6.12,0,0,0-.93-1c4.92-2.53,17.71-9.09,31.44-16.23l-.47-.89c-14.16,7.37-27.32,14.12-31.88,16.45a5.87,5.87,0,1,0,2.86,5.45,187.32,187.32,0,0,1,18-9.69Z" style="fill:#e8e8e8"></path><path d="M158.1,276.15c3.19,10,7.58,18.31,13.19,23.56,31.26,29.28,141.51,26.56,175.34,0C362.7,287.1,368,252.56,365.3,220.06,264.08,181.05,192.68,237.4,158.1,276.15Z" style="fill:#e8e8e8;opacity:0.30000000000000004"></path><circle cx="219.75" cy="186.05" r="1.82" style="fill:#fff"></circle><path d="M241.61,150.84a1.82,1.82,0,1,1-1.82-1.82A1.83,1.83,0,0,1,241.61,150.84Z" style="fill:#fff"></path><path d="M276.22,150.23a3.65,3.65,0,1,1-3.65-3.64A3.64,3.64,0,0,1,276.22,150.23Z" style="fill:#fff"></path><circle cx="301.11" cy="153.27" r="1.82" style="fill:#fff"></circle><path d="M183.93,259.21a2.13,2.13,0,1,1-2.13-2.12A2.13,2.13,0,0,1,183.93,259.21Z" style="fill:#fff"></path><path d="M168.75,235.23a1.82,1.82,0,1,1-1.82-1.82A1.82,1.82,0,0,1,168.75,235.23Z" style="fill:#fff"></path><path d="M209.43,245.86a1.52,1.52,0,1,1-1.52-1.52A1.52,1.52,0,0,1,209.43,245.86Z" style="fill:#fff"></path><circle cx="282.59" cy="267.71" r="0.91" style="fill:#fff"></circle><path d="M328.43,285.32a2.13,2.13,0,1,1-2.12-2.12A2.12,2.12,0,0,1,328.43,285.32Z" style="fill:#fff"></path><path d="M346,233.41a1.82,1.82,0,1,1-1.82-1.82A1.82,1.82,0,0,1,346,233.41Z" style="fill:#fff"></path><path d="M188.18,295.64a2.13,2.13,0,1,1-2.13-2.12A2.13,2.13,0,0,1,188.18,295.64Z" style="fill:#fff"></path><circle cx="237.66" cy="305.36" r="2.73" style="fill:#fff"></circle><path d="M347.86,186.66a2.43,2.43,0,1,1-2.43-2.43A2.43,2.43,0,0,1,347.86,186.66Z" style="fill:#fff"></path><path d="M353.93,198.5a2.73,2.73,0,1,1-2.73-2.73A2.73,2.73,0,0,1,353.93,198.5Z" style="fill:#fff"></path><path d="M343.61,167.23A1.22,1.22,0,1,1,342.4,166,1.22,1.22,0,0,1,343.61,167.23Z" style="fill:#fff"></path><circle cx="359.4" cy="221.27" r="1.21" style="fill:#fff"></circle><path d="M329,234.93a2.13,2.13,0,1,1-2.13-2.13A2.12,2.12,0,0,1,329,234.93Z" style="fill:#fff"></path><path d="M320.54,192.43a1.52,1.52,0,1,1-1.52-1.52A1.52,1.52,0,0,1,320.54,192.43Z" style="fill:#fff"></path><path d="M327.82,153.57a2.13,2.13,0,1,1-2.12-2.13A2.12,2.12,0,0,1,327.82,153.57Z" style="fill:#fff"></path><path d="M363,258.91a3,3,0,1,1-3-3A3,3,0,0,1,363,258.91Z" style="fill:#fff"></path><path d="M353.93,271.66a1.82,1.82,0,1,1-1.82-1.82A1.81,1.81,0,0,1,353.93,271.66Z" style="fill:#fff"></path><circle cx="338.15" cy="271.05" r="1.21" style="fill:#fff"></circle><path d="M339.36,244a.91.91,0,1,1-.91-.91A.91.91,0,0,1,339.36,244Z" style="fill:#fff"></path></g></svg>
