<svg xmlns="http://www.w3.org/2000/svg" viewBox="0 0 500 500"><g id="freepik--Moon--inject-381"><circle cx="377.11" cy="110.07" r="90.61" style="fill:#fff;stroke:#c2c2c2;stroke-miterlimit:10"></circle></g><g id="freepik--Clouds--inject-381"><path d="M315.24,66s-4.62-12.71-16.75-16.76-25.42,8.09-25.42,8.09,0-2.89-11-5.2-14.44,4-16.76,6.93-10.4,1.16-16.17,0-8.67,1.74-11,4-7.51,2.31-12.71,2.89-9.82,5.78-9.82,5.78a106.27,106.27,0,0,1-10.4,3.46c-2.89.58-9.25,3.47-9.25,3.47H360.88S360.31,70,347.6,67.11,328,68.85,324.49,68.85,315.24,66,315.24,66Z" style="fill:#c2c2c2"></path><path d="M439.74,197.75s-3.42-9.42-12.41-12.41-18.83,6-18.83,6,0-2.14-8.13-3.85-10.69,3-12.4,5.13-7.71.86-12,0-6.41,1.29-8.13,3-5.56,1.71-9.41,2.14-7.27,4.28-7.27,4.28a79.37,79.37,0,0,1-7.71,2.56,48.92,48.92,0,0,0-6.84,2.57H473.54s-.42-6.42-9.84-8.56-14.55,1.29-17.11,1.29S439.74,197.75,439.74,197.75Z" style="fill:#c2c2c2"></path><path d="M228,212.39s-7.12-19.58-25.82-25.81S163,199,163,199s0-4.45-16.91-8-22.25,6.23-25.81,10.68-16,1.78-24.93,0S82,204.38,78.42,207.94s-11.57,3.56-19.58,4.45-15.13,8.9-15.13,8.9-11.57,4.45-16,5.34S13.45,232,13.45,232H298.27s-.89-13.35-20.47-17.8-30.26,2.67-35.6,2.67S228,212.39,228,212.39Z" style="fill:#c2c2c2"></path></g><g id="freepik--Trees--inject-381"><path d="M443.8,405.24l-24.4-44.62,15.77,3.75L399.87,314l-25.54,45.82,15-11.26-19.53,30.79,15-6L357.8,417l24.14-15.58L351.67,443c1.41.37,2.84.71,4.28,1l18.38-7.57-7.05,9.17c20.51,1.5,43.09-4.54,64.11-24.3,1.14-1.07,2.24-2.22,3.32-3.42l-9.3-16,17,5.66C442.87,406.82,443.34,406,443.8,405.24Z" style="fill:#a1a1a1"></path><path d="M357.78,403.36l24.42,42c-24.23,2.76-46.9-6.14-62.69-17.63-10.61-7.71-24.06-9-40.56-8.22-4.95.22-10.17.62-15.67,1.08l-5.61.48,38.09-61.37-23,9.19,29.87-47.09-23,17.23L318.73,269l54,77-24.12-5.74,40.2,73.51Z" style="fill:#c2c2c2"></path></g><g id="freepik--Werewolf--inject-381"><path d="M178,262.73s-9.41-.63-14.75-4.71-15.06-4.39-15.06-4.39l3.14,3.76s1.25-1.88-12.55-2.51-19.77.31-19.77.31l6.59,2.2s-16.32-3.45-26,2.83-25.1,15.06-29.49,30.12-26.68,32.63-27.62,33,2.51-.94,22.28,1.57,33.58-.63,40.17-6.91,21.65-24.79,21.65-24.79l-3.45,9.42s6.27-4.71,9.41-9.73,17-15.38,17-15.38l-6.91,9.73s7.85-6,14.44-10.35,16.31-5.34,16.31-5.34Z" style="fill:#8FC9ED;stroke:#263238;stroke-miterlimit:10"></path><path d="M64.73,324.86c19.77,2.51,33.58-.63,40.17-6.91s21.65-24.79,21.65-24.79l-3.45,9.42s6.27-4.71,9.41-9.73,17-15.38,17-15.38l-6.91,9.73s7.85-6,14.44-10.35,16.31-5.34,16.31-5.34l1.89-3.53-23.58-3.59,3.11,4.15-13.48,3.63-13,4.15,6.23,2.6s-15,5.18-18.16,9.33S103.9,300.7,99.23,305.89l-4.67,5.18,2.59-9.85S94,305.89,86.26,309s-18.15,8.3-24.89,10.37-18.92,3.92-18.92,3.92l-.06,0C43.05,323.29,48.15,322.75,64.73,324.86Z" style="fill:#263238;stroke:#263238;stroke-miterlimit:10"></path><path d="M153.54,310.42s-7.54-10.35-12.24-9.73-10.36,23.54-14.75,37.66-11,46.75-10.67,52.09-1.25,5.65,6.59,6.59,20.08,1.25,22-1.26.31-7.84-2.83-11.29-6.9-2.51-7.84-6.28,5.33-27.61,7.53-34.52,5-8.16,8.16-10.67S155.1,321.09,153.54,310.42Z" style="fill:#8FC9ED;stroke:#263238;stroke-miterlimit:10"></path><path d="M141.3,300.69c-4.71.63-10.36,23.54-14.75,37.66-1.36,4.38-2.94,10.53-4.45,17.1a27.18,27.18,0,0,0,4.62,11.12s2.59-5.71,3.63-2.08,3.42,13.71,3.42,13.71c-1-3.77,5.33-27.61,7.53-34.52s5-8.16,8.16-10.67,5.64-11.92,4.08-22.59C153.54,310.42,146,300.07,141.3,300.69Z" style="fill:#263238;stroke:#263238;stroke-miterlimit:10"></path><path d="M308.72,215.47a32.22,32.22,0,0,1-.55,11.4c-1.44,5.77-8.65,13.56-8.65,13.56s3.17,12.4,1.15,19.33-5.77,11.25-4.61,13,16.15,20.48,20.19,28,21.92,28,23.36,32.59.87,9.23.29,13S335.29,372,335,375.43s-.29,5.19-3.17,6.06-11.54,0-14.14-.58-8.36-1.15-9.52-3.46S305,366.78,305,366.78a30.05,30.05,0,0,1-2.6-5.77l-.86-2.89s5.77,3.75,7.79,4.62a6.84,6.84,0,0,0,6.34-1.16c1.16-1.15,3.75-.57,4.62-3.46s1.15-5.48,2.31-10.38a59.08,59.08,0,0,1,4-10.68s-26.82-16.15-28.55-16.73.28,4,.28,4-9.8-4.33-15.57-8.94-17.31-23.94-18.46-28.85-2-7.79-1.45-9.8,3.18-8.37,3.18-15.87-.87-15.58.57-19.62,13.56-11.53,20.48-20.19S308.11,207.24,308.72,215.47Z" style="fill:#8FC9ED;stroke:#263238;stroke-miterlimit:10"></path><path d="M298.08,320.33c1.08.37,12.08,6.88,20.1,11.67-1-4.43-4.61-19.36-7-25.06-2.8-6.72-9-16.23-9-16.23v9a125.66,125.66,0,0,1-9.52-14c-3.36-6.16,3.34-12.93,3.34-12.93-1.16-1.73,2.59-6.06,4.61-13s-1.15-19.33-1.15-19.33,7.21-7.79,8.65-13.56a32.22,32.22,0,0,0,.55-11.4c-.61-8.23-14.68-3-21.61,5.63s-19,16.16-20.48,20.19-.57,12.12-.57,19.62-2.6,13.85-3.18,15.87.29,4.9,1.45,9.8,12.69,24.23,18.46,28.85,15.57,8.94,15.57,8.94S296.34,319.76,298.08,320.33Z" style="fill:#263238;stroke:#263238;stroke-miterlimit:10"></path><path d="M202.71,161.57s-7.57,34.11-9.87,45.62-12.27,45.63-12.27,45.63-24.93,44.48-32.21,67.11-2.69,29.14,8.82,29.91,24.15-24.16,33.74-34.9S207,299.6,211.63,299.6s18,21.09,18,21.09-26.84-3.06-28.37,0-3.07,13.43,1.53,37.58,5.75,39.5,8.05,40.27,27.61,2.3,30.68,1.92,2.68-5.76.38-8.44S230,387.8,227,385.5s-6.9-15.34-6.9-25.69a166.3,166.3,0,0,1,1.15-19.18s27.61,10,37.58,8.44,6.9-11.12,3.06-28.38-8.82-41.41-8.43-50.23,18-28.76,18-28.76,20.71-10,17.26-42.57-28.76-51-42.18-55.22-21.86-1.92-29.15,1.92S202.71,161.57,202.71,161.57Z" style="fill:#8FC9ED;stroke:#263238;stroke-miterlimit:10"></path><path d="M258.8,349.07c10-1.53,6.9-11.12,3.06-28.38,0-.11-.05-.22-.07-.34l-9-8.76-32.68-6.74-1.48.51a170.72,170.72,0,0,1,11.06,15.33s-26.84-3.06-28.37,0-3.07,13.43,1.53,37.58q.91,4.82,1.66,9.13l7.82,8.5v-7.78l11,10.59a62.75,62.75,0,0,1-3.24-18.9,166.3,166.3,0,0,1,1.15-19.18S248.83,350.6,258.8,349.07Z" style="fill:#263238;stroke:#263238;stroke-miterlimit:10"></path><path d="M275.35,203.16s-27.57,14.91-32.05,14.54-17.88-15.65-17.88-15.65l2.61,9.31a64.61,64.61,0,0,1-9.69,4.47c-6,2.24-18.26,2.61-18.26,2.61s7.82,3,13.41,3a36.54,36.54,0,0,0,10.81-1.86s.74,6.71-8.2,15.28-29.44,11.93-25.34,13a35.45,35.45,0,0,0,9.69.75s-13.42,1.86-16,4.1,5.56,2.33,5.56,2.33-.72.65,4.87-.84l5.59-1.49V269.5l-7.08-9.69s2.61,8.2,4.84,13.41,3.36,13.42,3.36,13.42l-7.46-4.85s1.87,6,3,11.18c.8,3.74.07,11.69-.41,15.89,6.53-6.41,11.33-9.26,14.94-9.26,4.6,0,18,21.09,18,21.09s23.73,17.54,35.78,21.71c.49-4.78-1.42-12-3.57-21.71-3.83-17.25-8.82-41.41-8.43-50.23s18-28.76,18-28.76a25,25,0,0,0,5.53-4.06,26.73,26.73,0,0,0,3.22-7.27C281.32,224.41,275.35,203.16,275.35,203.16Z" style="fill:#263238;stroke:#263238;stroke-miterlimit:10"></path><path d="M199.33,207.64s5.22,4.84,11.18,4.47" style="fill:none;stroke:#263238;stroke-miterlimit:10"></path><path d="M206.41,203.16s4.1,4.48,7.83,4.48" style="fill:none;stroke:#263238;stroke-miterlimit:10"></path><path d="M212.37,193.85s1.49,6,5.22,7.82" style="fill:none;stroke:#263238;stroke-miterlimit:10"></path><path d="M322.91,110.18l3.78,4.49,1.07-4.13,4.85,3,2.52-4.31L338,112.7l2.52-4.5,1.08,7.37a27.1,27.1,0,0,0,2.15-9l.36-5.21S325.07,105.69,322.91,110.18Z" style="fill:#fff;stroke:#263238;stroke-miterlimit:10"></path><path d="M317.52,125.81s4.49.18,6.83.18,3,2.16,4.67,3.77,3.24,2,6.65.72,4.85-3,4.85-.9,0,2.52-3.95,4.86-.54,2.69-7.55,2.15S317.88,129.05,317.52,125.81Z" style="fill:#263238;stroke:#263238;stroke-miterlimit:10"></path><path d="M331.54,136.41l1.79-3.95,1.26,2.33,3.41-2.87.72,2a46.6,46.6,0,0,0,3.06-4.5c.36-.89,1.08,2.16,1.08,2.16l2.33-4,.72,6.83a16.94,16.94,0,0,1-9.16,3.41C331.54,138,331.54,136.41,331.54,136.41Z" style="fill:#fff;stroke:#263238;stroke-miterlimit:10"></path><path d="M316.26,97.42s-.53,1.62-4.13,0-11.5-2.15-15.81-.18-10.6,3.24-21.74,8.63-16.53,11.14-21.74,11-16.89-2.7-16.89-2.7l6.29,5.57a21.62,21.62,0,0,0-8.09,3.06c-4.49,2.69-9.88,6.82-9.88,6.82l7.55-.71s-11.5,5-13.48,6.82-2.87,2.52-2.87,2.52l8.44-2s-11.14,4.85-14.37,9.7-7.19,12.76-7.19,12.76l5-4.13s-4.67,5.21-4.67,7-.54,7.54-.54,7.54,0-2.87,5-7.9,7.19-8.81,11.68-10.6a75,75,0,0,1,10.6-3.06l-3.59,5.75,8.62-3.77-2,2.87,5.57-2.69s.36,0,2,2,3.6,4.68,3.6,4.68l1.61,2.15.54-2.87,4.67,5,14,9.34s5.39,4.67,6.29,7,1.25,3.41,1.25,3.41l.36-3.77s2.34,4.85,2.7,7,1.26,12.39.54,16.35S269,212.77,269,212.77a144.83,144.83,0,0,0-4.31,21.74,133.91,133.91,0,0,1-3.42,19.23c-.18.72,6.11-6.65,11.32-9.7s8.81-4.68,11.86-8.63S292.19,225,292.19,225l-1.62,8.45s8.45-4.86,9.88-6.47,4.85-8.45,4.85-8.45l.18,5.21,3.24-8.26,1.79,6.29s2.16-2.88,3.24-9.17.54-12.93-3.41-18.86-6.65-13.48-8.09-21.2-.18-11.68-.18-11.68l3.23,2v-5.21l2.52,4.32s.54-8.63,2.69-12.58,11.32-7,16.71-6.11,7.37,1.44,7,2.87-1.26,4-1.26,4l6.11-3.24-.54,3.24s2.16-4.31,4.68-6.47,5.57-8.27,5.39-9.52.53-1.8-1.62-1.44-7.91,3.41-14.38,4.13-12.93-4.49-13.83-10.78,1.62-14,4.13-15.81,14.56-5.57,16.89-5,4.85.72,5.21-1.26-.36-1.62,0-5.21.18-4.49-4.67-6.11-10.42-.36-14.55.72A49.91,49.91,0,0,0,316.26,97.42Z" style="fill:#8FC9ED;stroke:#263238;stroke-miterlimit:10"></path><path d="M284.9,226c4.15-3.11,7.26-11.41,7.26-11.41l.52,9.34a16.41,16.41,0,0,0,6.75-9.85" style="fill:none;stroke:#263238;stroke-miterlimit:10"></path><path d="M269.34,228.09l6.23-4.15v7.26a50.41,50.41,0,0,0,6.54-3.31" style="fill:none;stroke:#263238;stroke-miterlimit:10"></path><path d="M312.31,105s-.54-4.31-1.62-4.67S303,105,303,105Z" style="fill:#fff;stroke:#263238;stroke-miterlimit:10"></path><path d="M312.49,106.41a7.45,7.45,0,0,1-6.83,6.82" style="fill:none;stroke:#263238;stroke-miterlimit:10"></path><path d="M337.47,99.58c2.15,0,6.46-2.7,7.54-2.52h.12c0-2.3-.77-3.15-4.79-4.49a16.1,16.1,0,0,0-4.3-.75c-.75.36-2.49,1.36-2.35,2.91C333.87,96.7,335.31,99.58,337.47,99.58Z" style="fill:#263238;stroke:#263238;stroke-miterlimit:10"></path><path d="M290.21,110.72s-18.68-6.83-25.33-7.19-21.56,0-23.9-.36-5.21-2.69-5.39-1.08,11.86,9,17.25,14.74,11.68,8.8,19.4,6.65,18.15-5.39,18.15-5.39" style="fill:#263238;stroke:#263238;stroke-miterlimit:10"></path><path d="M317.42,107.56s-5.61,13.89-2.47,25.1" style="fill:none;stroke:#263238;stroke-miterlimit:10"></path><path d="M313,133.66A7.28,7.28,0,0,0,314.5,136" style="fill:none;stroke:#263238;stroke-miterlimit:10"></path><path d="M310.47,121.45a57.33,57.33,0,0,0,1.73,10" style="fill:none;stroke:#263238;stroke-miterlimit:10"></path><path d="M280.32,143.84a6.29,6.29,0,0,0-.11,1.14,51.75,51.75,0,0,0,.45,6.5l4.93-6a9.57,9.57,0,0,0,.23,6.28,54,54,0,0,0,3.81,6.5l3.36-5.16s-.67,3.81,1.57,6.5a17.67,17.67,0,0,1,2.91,4.48l.9-6.72,3.7,3.54" style="fill:none;stroke:#263238;stroke-miterlimit:10"></path><path d="M283.13,138.49a13.18,13.18,0,0,0-1.52,2.08" style="fill:none;stroke:#263238;stroke-miterlimit:10"></path><path d="M124.51,384.51s6.15,5.16,2.33,12.47" style="fill:none;stroke:#263238;stroke-miterlimit:10"></path><path d="M132,384.18s9.15,6.15,4.66,13.13" style="fill:none;stroke:#263238;stroke-miterlimit:10"></path><path d="M123.85,389.33s-3,.5-3,2.16a3.28,3.28,0,0,0,2.32,3c1,.33,1.33,2.16,1.33,2.16a6.34,6.34,0,0,0,1.67-4.49C126,389.5,125.51,389.83,123.85,389.33Z" style="fill:#263238;stroke:#263238;stroke-miterlimit:10"></path><path d="M133.16,388.83s-3,.5-3,2.17a3.27,3.27,0,0,0,2.32,3c1,.33,1.33,2.16,1.33,2.16a6.3,6.3,0,0,0,1.66-4.49C135.32,389,134.82,389.33,133.16,388.83Z" style="fill:#263238;stroke:#263238;stroke-miterlimit:10"></path><path d="M142.13,388.67s-3,.5-3,2.16a3.27,3.27,0,0,0,2.33,3c1,.33,1.33,2.16,1.33,2.16a6.3,6.3,0,0,0,1.66-4.49C144.29,388.83,143.8,389.17,142.13,388.67Z" style="fill:#263238;stroke:#263238;stroke-miterlimit:10"></path><path d="M220.75,389.33s3.33,1.67,4.82,1.67,7.65,4,6.82,9.3" style="fill:none;stroke:#263238;stroke-miterlimit:10"></path><path d="M229.56,388.67s7.48.5,9,5.15,1,6.65,1,6.65" style="fill:none;stroke:#263238;stroke-miterlimit:10"></path><path d="M227.57,393.49s-3,.5-3,2.16a3.27,3.27,0,0,0,2.32,3c1,.33,1.33,2.16,1.33,2.16a6.34,6.34,0,0,0,1.67-4.49C229.73,393.66,229.23,394,227.57,393.49Z" style="fill:#263238;stroke:#263238;stroke-miterlimit:10"></path><path d="M235.88,392.66s-3,.5-3,2.16a3.27,3.27,0,0,0,2.32,3c1,.33,1.33,2.16,1.33,2.16a6.34,6.34,0,0,0,1.67-4.49C238,392.82,237.54,393.16,235.88,392.66Z" style="fill:#263238;stroke:#263238;stroke-miterlimit:10"></path><path d="M242.86,393.16s-3,.5-3,2.16a3.27,3.27,0,0,0,2.32,3c1,.33,1.33,2.16,1.33,2.16a6.34,6.34,0,0,0,1.67-4.49C245,393.32,244.52,393.66,242.86,393.16Z" style="fill:#263238;stroke:#263238;stroke-miterlimit:10"></path><path d="M221,191.31l8.56,23.13s-5.71,18.7-5.39,28.53S228.65,261,228,266.1s-5.07,18.7-4.12,21.23a25.63,25.63,0,0,1,1.27,4.76l2.22-5.71s4.43,30.11,8.87,37.08,16.16,13.31,20.6,20,10.88,17.4,10.88,18.35-3.17,8.87-3.17,12,1.91,7.93,1.91,7.93l-1,8.87-2.85-1.22s-1.28.64-1.07,4.47a65.28,65.28,0,0,0,.85,7.23,8,8,0,0,0,3.83.43c1.49-.43,2.77,0,3.19-3.41a46.41,46.41,0,0,1,2.13-8.93c.43-.85.64,1.06,1.28,3.19a7.26,7.26,0,0,1,.42,3.19s-1.49-1.06-1.7.85a47.46,47.46,0,0,0,.21,6.39s4.26.85,5.75,0,1.91-1.92,2.13-4.47a33.26,33.26,0,0,1,.66-3.8c.62-2.94,1.46-6.2,1.46-6.2a12.92,12.92,0,0,1,.64,3c0,1.06-1.91,5.32-1.06,7.44s1.91,1.92,2.76,2.77,1.49,1.91,4.68,1.28,4.05-1.28,4.26-3.41-1.7-8.51-1.28-9.36,4-6.38,4.9-7.87,2.76-2.34,1.06-4.68-7.23-8.72-8.09-12.55-3-6.3-4.89-12.68-3.4-9.58-5.53-17.66-7.87-34.46-11.27-43.4-4.47-11.49-4.47-11.49l-2.77-18.51s7.87-14.68,8.51-28.93-.21-20.85-.21-20.85a20,20,0,0,0,7.45-16.17c-.43-10.42-.11-18.14-12-25.24" style="fill:#8FC9ED;stroke:#263238;stroke-miterlimit:10"></path><path d="M239.68,275a11.79,11.79,0,0,0-3.4,7.87v7.87l2.13-6.17s-.22,4.26.42,5.54,1.7,3.83,1.7,3.83l1.07-6.6" style="fill:none;stroke:#263238;stroke-miterlimit:10"></path><path d="M272.81,333.09c1.21,2.26,2,4.06,2,4.06" style="fill:none;stroke:#263238;stroke-miterlimit:10"></path><path d="M243.09,295.45a24.11,24.11,0,0,0,6.17,16.39c6.8,7.65,17.23,12.12,20.21,16,.55.71,1.08,1.48,1.58,2.26" style="fill:none;stroke:#263238;stroke-miterlimit:10"></path><path d="M269,212.77s-11.46,5.88-17.2,7.37" style="fill:none;stroke:#263238;stroke-miterlimit:10"></path><path d="M291.8,390s.43-4,.85-6,.85-3.61-.21-5.53-1.7-2.55-1.7-3.4a10.18,10.18,0,0,0-1.28-3" style="fill:none;stroke:#263238;stroke-miterlimit:10"></path><path d="M279,387.06s4.68-1.91,4.46-4-.63-4.25-.63-6v-4.89" style="fill:none;stroke:#263238;stroke-miterlimit:10"></path><path d="M271,387.49a5.23,5.23,0,0,0,2.13-3.19,21.81,21.81,0,0,0,.21-5.11c0-1.28,1.07-8.3,1.07-8.3" style="fill:none;stroke:#263238;stroke-miterlimit:10"></path><path d="M282.44,391.32s1.28,3,1.92,5.1-1.49,0-.86,2.56" style="fill:none;stroke:#263238;stroke-miterlimit:10"></path><path d="M273.29,395.57s-.21,4.26,1.07,5.32" style="fill:none;stroke:#263238;stroke-miterlimit:10"></path><path d="M265.51,390.62s-2,4.53-1.58,7.29" style="fill:none;stroke:#263238;stroke-miterlimit:10"></path><path d="M245.15,254.82A24.79,24.79,0,0,1,241,244.61a37.19,37.19,0,0,1,1.91-21.06" style="fill:none;stroke:#263238;stroke-miterlimit:10"></path><path d="M249.89,258.86a9.4,9.4,0,0,1-2.77-1.85" style="fill:none;stroke:#263238;stroke-miterlimit:10"></path><path d="M328.94,335.33s-6.63,6.06-7.5,9.52a29,29,0,0,0-.29,9.81c.29,1.15-5.48,6.92-5.48,6.92l-4,.87s5.48,1.15,8.95.29a16.07,16.07,0,0,0,6.05-3.18s4.91.29,5.2-2.88-1.16-3.75.28-6.92,3.75-7.22,3.75-7.22" style="fill:#8FC9ED;stroke:#263238;stroke-miterlimit:10"></path><path d="M326,355.77c-1.69-1.48-4.81-1.11-4.81-1.11.29,1.15-5.48,6.92-5.48,6.92l-4,.87s5.48,1.15,8.95.29a16.07,16.07,0,0,0,6.05-3.18S327.66,357.25,326,355.77Z" style="fill:#263238;stroke:#263238;stroke-miterlimit:10"></path><path d="M305,366.78a46.37,46.37,0,0,0,3.38,3.39c1.06.85,3.81-.84,9.74.43s10.81,4,12.93,2.75,3.17-4.23,3.81-6.56" style="fill:none;stroke:#263238;stroke-miterlimit:10"></path><path d="M306.26,369.12s6.36,9.32,8.05,9.32,5.93-1.27,9.11-1.06,7.84,3.18,10-1.06" style="fill:none;stroke:#263238;stroke-miterlimit:10"></path><path d="M292.33,112.07s-17.5-7.66-24.33-8.75a102.37,102.37,0,0,0-16.95-1.09c-4.37,0-17.77-3.29-18.32-.83s7.38,3.83,14.49,5.75,12,3.28,18.32,5.46,17.77,4.92,22.69,4.38S294.45,113.42,292.33,112.07Z" style="fill:#8FC9ED;stroke:#263238;stroke-miterlimit:10"></path></g><g id="freepik--Plant--inject-381"><path d="M62.55,357.51c1.46.53,4.92.23,4.92.23s-.89-2.22-1-2.35c-.87-1.54-3.44-4-5.38-3.63a2.34,2.34,0,0,0-1.69,3.05A4.88,4.88,0,0,0,62.55,357.51Z" style="fill:#263238"></path><path d="M64.39,367.48a16.2,16.2,0,0,0,4.76-1.07,41.56,41.56,0,0,0,2.21,5.08c.49.95,1,1.9,1.54,2.85-.3-.4-.58-.75-.63-.79-1.24-1.26-4.37-3-6.14-2.08a2.34,2.34,0,0,0-.82,3.39A4.89,4.89,0,0,0,69,376.64a15.62,15.62,0,0,0,4.63-1l.62,1.08c1,1.73,2,3.44,3,5.16.33.6.64,1.21,1,1.82-.28-.35-.51-.65-.55-.69-1.24-1.26-4.38-3-6.14-2.07a2.34,2.34,0,0,0-.83,3.38,4.91,4.91,0,0,0,3.71,1.79,15.18,15.18,0,0,0,4.51-1c.3.63.59,1.26.85,1.88.17.43.36.84.51,1.28l.45,1.29c.25.83.52,1.68.75,2.5.17.57.31,1.11.46,1.66-.32-.61-1-1.78-1-1.87-1-1.43-3.87-3.6-5.76-3a2.35,2.35,0,0,0-1.32,3.23,4.86,4.86,0,0,0,3.39,2.32,15.78,15.78,0,0,0,4.84-.32c.25.91.47,1.79.68,2.63l.21.92h1.24c-.1-.39-.21-.8-.32-1.21-.24-.92-.52-1.9-.81-2.9a26,26,0,0,0,2.62-1.45,17.2,17.2,0,0,0,4.09,2.29c-.29.89-.59,1.75-.88,2.56-.09.24-.18.48-.26.71h1.25c0-.11.08-.21.11-.32.31-.91.62-1.88.92-2.87a16.29,16.29,0,0,0,4.85.06A4.88,4.88,0,0,0,99,392a2.34,2.34,0,0,0-1.49-3.15c-1.91-.51-4.64,1.8-5.59,3.29-.06.08-.56,1.1-.87,1.75.12-.41.24-.8.37-1.23.24-.83.47-1.67.71-2.57l.3-1.33c.12-.44.18-.93.27-1.39.18-1.09.32-2.2.43-3.32a15.15,15.15,0,0,0,4.65.76,4.85,4.85,0,0,0,3.61-2,2.33,2.33,0,0,0-1-3.33c-1.81-.8-4.85,1.07-6,2.4-.08.08-.81,1.12-1.2,1.7.06-.67.13-1.34.17-2,.12-2,.17-4,.24-6,0-.61,0-1.22.07-1.83a16.2,16.2,0,0,0,4.81.81,4.86,4.86,0,0,0,3.61-2,2.35,2.35,0,0,0-1-3.34c-1.81-.79-4.85,1.08-6,2.4-.09.1-1.14,1.61-1.39,2,0-1.34.12-2.68.24-4a40.56,40.56,0,0,1,.8-5.29c.12,0,3.33,1,4.84.81a4.86,4.86,0,0,0,3.61-2,2.34,2.34,0,0,0-1-3.33c-1.82-.8-4.85,1.07-6,2.4-.1.1-1.23,1.72-1.41,2,0-.1,0-.21.06-.31A30.21,30.21,0,0,1,96.51,359c.39-.91.82-1.75,1.25-2.56a15.65,15.65,0,0,0,4.61,1.29,4.91,4.91,0,0,0,3.81-1.57,2.35,2.35,0,0,0-.63-3.43c-1.72-1-4.94.54-6.25,1.73-.07.06-.72.8-1.19,1.34.2-.36.4-.74.6-1.09.75-1.29,1.51-2.43,2.2-3.44.39-.57.76-1.07,1.11-1.55a15.44,15.44,0,0,0,4.66-1,4.89,4.89,0,0,0,2.66-3.15,2.35,2.35,0,0,0-2.14-2.75c-2-.08-4.14,2.76-4.75,4.41-.06.15-.63,2.48-.59,2.48h0c-.35.45-.71.93-1.1,1.47-.71,1-1.5,2.12-2.27,3.4a42.22,42.22,0,0,0-2.32,4.27,31.18,31.18,0,0,0-1.88,5.09s0,0,0,.07c0-.58-.16-2.2-.18-2.32-.34-1.74-2-4.89-4-5.12a2.34,2.34,0,0,0-2.55,2.37,4.86,4.86,0,0,0,2.11,3.53,16.22,16.22,0,0,0,4.55,1.74,41.31,41.31,0,0,0-1,5.45c-.12,1.07-.21,2.15-.29,3.23,0-.5-.08-.94-.09-1-.34-1.73-2-4.88-4-5.12a2.35,2.35,0,0,0-2.56,2.37,4.9,4.9,0,0,0,2.11,3.54,15.57,15.57,0,0,0,4.42,1.71c0,.41,0,.83-.07,1.24-.11,2-.22,4-.37,5.95-.06.68-.14,1.36-.22,2,0-.45-.07-.82-.08-.88-.34-1.73-2-4.88-4-5.12A2.34,2.34,0,0,0,85.67,380a4.91,4.91,0,0,0,2.11,3.54,14.9,14.9,0,0,0,4.29,1.67c-.1.69-.2,1.38-.32,2.05-.1.45-.17.89-.29,1.34l-.33,1.32c-.25.84-.5,1.7-.75,2.51-.18.56-.36,1.09-.54,1.63.07-.68.16-2,.16-2.14a9.12,9.12,0,0,0-1.5-4.33,3,3,0,0,0-.07-.52,2.34,2.34,0,0,0-3-1.8c-1.88.63-2.87,4.06-2.85,5.83,0,.1.14,1.23.24,1.94-.12-.41-.23-.81-.37-1.23-.25-.83-.53-1.65-.82-2.54-.16-.42-.32-.84-.48-1.28s-.37-.86-.55-1.3c-.44-1-.94-2-1.46-3a15.72,15.72,0,0,0,4.29-1.93,4.89,4.89,0,0,0,1.92-3.65,2.35,2.35,0,0,0-2.68-2.23c-2,.34-3.45,3.58-3.7,5.33,0,.1,0,1.38,0,2.08-.32-.6-.64-1.19-1-1.78-1-1.72-2-3.42-3.09-5.12-.32-.52-.64-1-1-1.56a16.62,16.62,0,0,0,4.45-2,4.87,4.87,0,0,0,1.92-3.65,2.35,2.35,0,0,0-2.68-2.23c-2,.34-3.45,3.58-3.69,5.33,0,.13-.07,2-.06,2.43-.69-1.15-1.38-2.3-2-3.47a40.55,40.55,0,0,1-2.25-4.85c.12,0,3.34-1,4.48-2A4.87,4.87,0,0,0,76,360.74a2.33,2.33,0,0,0-2.67-2.23c-2,.33-3.46,3.57-3.7,5.32,0,.14-.07,2.11-.06,2.47,0-.1-.08-.19-.12-.29a29.57,29.57,0,0,1-1.33-5.19c-.17-1-.29-1.91-.37-2.83a16.16,16.16,0,0,0,4.56-1.46,4.94,4.94,0,0,0,2.31-3.42,2.35,2.35,0,0,0-2.42-2.51c-2,.13-3.82,3.18-4.26,4.89,0,.09-.16,1.07-.25,1.78,0-.42-.08-.85-.1-1.24-.09-1.5-.08-2.87-.07-4.09,0-.69,0-1.31.07-1.9A15.76,15.76,0,0,0,71,346.66a4.93,4.93,0,0,0,.48-4.09,2.35,2.35,0,0,0-3.31-1.12c-1.69,1-1.93,4.58-1.53,6.3,0,.15.85,2.41.88,2.39l0,0c0,.56-.08,1.16-.11,1.82,0,1.22-.08,2.59,0,4.1a43.38,43.38,0,0,0,.43,4.83,30.56,30.56,0,0,0,1.24,5.29.14.14,0,0,1,0,.06c-.34-.47-1.34-1.75-1.43-1.84-1.24-1.26-4.37-3-6.14-2.08a2.34,2.34,0,0,0-.82,3.39A4.9,4.9,0,0,0,64.39,367.48Z" style="fill:#263238"></path><path d="M97.66,356s.48-2.34.49-2.49c.13-1.76-.65-5.25-2.48-6a2.34,2.34,0,0,0-3.09,1.61,4.89,4.89,0,0,0,1.1,4C94.6,354.37,97.65,356,97.66,356Z" style="fill:#263238"></path></g><g id="freepik--Floor--inject-381"><path d="M286.93,481.17l6.69-2,16-4.68,12.7-14.7,20.06-6.69c4-1.33,11.36-10,11.36-10l-.67-8.69,20.72-18.05s7.36-4.68,10.7-10-3.34-8.69-3.34-8.69H83.05S57,374.21,47,377.56s-27.41,20.05-27.41,20.05" style="fill:#fff;stroke:#263238;stroke-miterlimit:10"></path><path d="M384.53,406.3l-44.79,14L318.35,433,309,438.39l-22.06,17.38L294.29,435s-10.7,4.68-13.37,4.68-18.72-3.34-18.72-3.34L271.56,419l-24.74,17.38-12.7,10.7L200,453.76l-2,9.36,54.81-8-9.36,9.36,2.68,4.68,30.75-4.68-13.37,11.36,8,2.67,28.74-11.36-.67,10,10-2.68,12.7-14.7,20.06-6.69,11.36-10-.67-8.69Z" style="fill:#263238;stroke:#263238;stroke-miterlimit:10"></path><path d="M76.14,448.86S156.38,404,163,403.48s5.53,11.07,5.53,11.07l6.09,21.58-9.41,19.37" style="fill:none;stroke:#263238;stroke-miterlimit:10"></path><polyline points="170.76 420.64 201.75 409.02 219.46 416.21 218.35 433.92 205.07 446.09 200.03 453.76" style="fill:none;stroke:#263238;stroke-miterlimit:10"></polyline><path d="M113.77,427.28,81.68,405.7s-16.05-.56-16.05,1.66-3.32,13.28-3.32,13.28l-22.13,8.85" style="fill:none;stroke:#263238;stroke-miterlimit:10"></path><line x1="82.9" y1="397.66" x2="46.82" y2="397.66" style="fill:none;stroke:#263238;stroke-miterlimit:10"></line></g></svg>