<svg class="animated" id="freepik_stories-enthusiastic" xmlns="http://www.w3.org/2000/svg" viewBox="0 0 500 500" version="1.1" xmlns:xlink="http://www.w3.org/1999/xlink" xmlns:svgjs="http://svgjs.com/svgjs"><style>svg#freepik_stories-enthusiastic:not(.animated) .animable {opacity: 0;}svg#freepik_stories-enthusiastic.animated #freepik--background-simple--inject-39 {animation: 1s 1 forwards cubic-bezier(.36,-0.01,.5,1.38) slideRight;animation-delay: 0s;}svg#freepik_stories-enthusiastic.animated #freepik--Clock--inject-39 {animation: 1s 1 forwards cubic-bezier(.36,-0.01,.5,1.38) lightSpeedLeft;animation-delay: 0s;}svg#freepik_stories-enthusiastic.animated #freepik--file-cabinet--inject-39 {animation: 1s 1 forwards cubic-bezier(.36,-0.01,.5,1.38) zoomIn;animation-delay: 0s;}svg#freepik_stories-enthusiastic.animated #freepik--Desk--inject-39 {animation: 1s 1 forwards cubic-bezier(.36,-0.01,.5,1.38) slideRight;animation-delay: 0s;}svg#freepik_stories-enthusiastic.animated #freepik--Character--inject-39 {animation: 1s 1 forwards cubic-bezier(.36,-0.01,.5,1.38) zoomOut;animation-delay: 0s;}svg#freepik_stories-enthusiastic.animated #freepik--Floor--inject-39 {animation: 1s 1 forwards cubic-bezier(.36,-0.01,.5,1.38) slideDown;animation-delay: 0s;}            @keyframes slideRight {                0% {                    opacity: 0;                    transform: translateX(30px);                }                100% {                    opacity: 1;                    transform: translateX(0);                }            }                    @keyframes lightSpeedLeft {              from {                transform: translate3d(-50%, 0, 0) skewX(20deg);                opacity: 0;              }              60% {                transform: skewX(-10deg);                opacity: 1;              }              80% {                transform: skewX(2deg);              }              to {                opacity: 1;                transform: translate3d(0, 0, 0);              }            }                    @keyframes zoomIn {                0% {                    opacity: 0;                    transform: scale(0.5);                }                100% {                    opacity: 1;                    transform: scale(1);                }            }                    @keyframes zoomOut {                0% {                    opacity: 0;                    transform: scale(1.5);                }                100% {                    opacity: 1;                    transform: scale(1);                }            }                    @keyframes slideDown {                0% {                    opacity: 0;                    transform: translateY(-30px);                }                100% {                    opacity: 1;                    transform: translateY(0);                }            }        .animator-hidden { display: none; }</style><g id="freepik--background-simple--inject-39" class="animable" style="transform-origin: 246.928px 228.62px;"><path d="M469.91,288.83c12.67-59.14,1.23-120.77-36.51-171.64C400,72.15,355,31,297.91,21.32,237,11.06,182.67,34.5,151,87.12c-16.39,27.2-28.24,56.89-40,86.28-9.12,22.66-17.1,48.42-32.29,67.95C56.2,270.19,31,299.82,21.52,335.94c-7.55,28.93,2,55.57,26,73.15,39.25,28.76,85.78,30.83,132.58,28.48a441.32,441.32,0,0,0,84.65-13c24.87-6.21,49.16-16.15,74.79-18.82,38.28-4,71-2,96.72-35.66C454,346.83,463.84,317.18,469.91,288.83Z" style="fill: rgb(143, 201, 237); transform-origin: 246.928px 228.62px;" id="elvlkev3jlz5n" class="animable"></path><g id="el7r838kr5bl"><path d="M469.91,288.83c12.67-59.14,1.23-120.77-36.51-171.64C400,72.15,355,31,297.91,21.32,237,11.06,182.67,34.5,151,87.12c-16.39,27.2-28.24,56.89-40,86.28-9.12,22.66-17.1,48.42-32.29,67.95C56.2,270.19,31,299.82,21.52,335.94c-7.55,28.93,2,55.57,26,73.15,39.25,28.76,85.78,30.83,132.58,28.48a441.32,441.32,0,0,0,84.65-13c24.87-6.21,49.16-16.15,74.79-18.82,38.28-4,71-2,96.72-35.66C454,346.83,463.84,317.18,469.91,288.83Z" style="fill: rgb(255, 255, 255); opacity: 0.7; transform-origin: 246.928px 228.62px;" class="animable"></path></g></g><g id="freepik--Clock--inject-39" class="animable" style="transform-origin: 385.23px 100.51px;"><circle cx="385.23" cy="100.51" r="39.39" style="fill: rgb(255, 255, 255); stroke: rgb(168, 168, 168); stroke-linecap: round; stroke-linejoin: round; transform-origin: 385.23px 100.51px;" id="eljtbzkjfo5uh" class="animable"></circle><circle cx="385.23" cy="100.51" r="35.82" style="fill: rgb(255, 255, 255); stroke: rgb(168, 168, 168); stroke-linecap: round; stroke-linejoin: round; transform-origin: 385.23px 100.51px;" id="elojm5f76806" class="animable"></circle><polyline points="373.06 112.93 385.23 100.51 415.39 111.61" style="fill: none; stroke: rgb(168, 168, 168); stroke-linecap: round; stroke-linejoin: round; transform-origin: 394.225px 106.72px;" id="elrxzxh380odj" class="animable"></polyline><path d="M387.61,100.51a2.38,2.38,0,1,1-2.38-2.39A2.38,2.38,0,0,1,387.61,100.51Z" style="fill: rgb(168, 168, 168); stroke: rgb(168, 168, 168); stroke-linecap: round; stroke-linejoin: round; transform-origin: 385.23px 100.5px;" id="elmrxc9lyw8l8" class="animable"></path></g><g id="freepik--file-cabinet--inject-39" class="animable" style="transform-origin: 100.628px 273.966px;"><path d="M44.28,92c1.44.63,4.95.55,5,.55s-.76-2.3-.83-2.44c-.77-1.62-3.21-4.28-5.19-4a2.37,2.37,0,0,0-1.9,3A5,5,0,0,0,44.28,92Z" style="fill: rgb(168, 168, 168); stroke: rgb(168, 168, 168); stroke-linecap: round; stroke-linejoin: round; transform-origin: 45.2742px 89.3214px;" id="elywi8snvznb" class="animable"></path><path d="M90.32,80c-2-.22-4.36,2.51-5.09,4.14-.06.14-.79,2.47-.75,2.46h0c-.38.43-.77.89-1.2,1.41-.78,1-1.65,2-2.52,3.29a42.75,42.75,0,0,0-2.61,4.16,31.1,31.1,0,0,0-2.23,5,.64.64,0,0,0,0,.07c0-.59,0-2.23,0-2.36-.23-1.77-1.71-5.06-3.68-5.43A2.38,2.38,0,0,0,69.49,95a5,5,0,0,0,1.91,3.71,16.42,16.42,0,0,0,4.48,2,42.76,42.76,0,0,0-1.31,5.44c-.19,1.07-.35,2.16-.5,3.25,0-.51,0-1,0-1-.23-1.77-1.72-5.06-3.69-5.43a2.37,2.37,0,0,0-2.73,2.23,4.92,4.92,0,0,0,1.9,3.71,15.68,15.68,0,0,0,4.35,2l-.15,1.25c-.24,2-.48,4-.76,6-.1.69-.23,1.37-.35,2,0-.45,0-.83,0-.89-.23-1.77-1.72-5.07-3.69-5.43a2.37,2.37,0,0,0-2.73,2.23,5,5,0,0,0,1.9,3.71,15.24,15.24,0,0,0,4.23,2c-.15.7-.29,1.39-.46,2-.13.45-.23.89-.38,1.33s-.28.89-.42,1.32c-.3.83-.61,1.68-.92,2.48-.22.56-.43,1.09-.65,1.62.11-.69.3-2,.3-2.15A9.28,9.28,0,0,0,68.55,124a3,3,0,0,0,0-.52,2.36,2.36,0,0,0-2.89-2c-1.94.51-3.17,3.91-3.26,5.69,0,.11.07,1.26.12,2-.1-.42-.19-.83-.29-1.26-.21-.85-.43-1.7-.67-2.62-.14-.43-.27-.87-.4-1.32s-.32-.9-.47-1.35c-.38-1-.82-2.09-1.29-3.13a15.7,15.7,0,0,0,4.46-1.67A5,5,0,0,0,66,114.21a2.37,2.37,0,0,0-2.56-2.42c-2,.21-3.72,3.38-4.08,5.13,0,.11-.14,1.4-.19,2.11-.29-.63-.57-1.25-.88-1.87-.89-1.79-1.84-3.58-2.79-5.36l-.86-1.65c.27-.06,3.44-.79,4.63-1.71a4.94,4.94,0,0,0,2.17-3.55,2.37,2.37,0,0,0-2.55-2.43c-2,.22-3.72,3.39-4.08,5.14,0,.13-.2,2-.22,2.45-.62-1.2-1.24-2.41-1.79-3.63a41.23,41.23,0,0,1-2-5c.13,0,3.44-.78,4.66-1.72a4.94,4.94,0,0,0,2.17-3.56,2.37,2.37,0,0,0-2.56-2.42c-2,.21-3.72,3.38-4.08,5.13,0,.14-.21,2.13-.21,2.5,0-.1-.08-.2-.11-.3a31.14,31.14,0,0,1-1-5.33c-.11-1-.16-2-.19-2.89a15.75,15.75,0,0,0,4.7-1.18,4.94,4.94,0,0,0,2.55-3.29,2.38,2.38,0,0,0-2.28-2.7c-2,0-4.06,3-4.61,4.66,0,.1-.24,1.07-.37,1.78,0-.42,0-.85,0-1.26,0-1.51.1-2.9.19-4.13.06-.69.13-1.32.2-1.91a16,16,0,0,0,3.61-3.2,5,5,0,0,0,.74-4.1A2.37,2.37,0,0,0,51,76.12c-1.78.92-2.25,4.5-2,6.26,0,.15.69,2.49.72,2.47l0,0c-.08.56-.16,1.17-.23,1.83-.12,1.23-.24,2.62-.28,4.14a41.32,41.32,0,0,0,.12,4.91,29.69,29.69,0,0,0,.91,5.41.14.14,0,0,0,0,.07c-.32-.5-1.25-1.85-1.33-2-1.17-1.35-4.22-3.27-6.07-2.49a2.37,2.37,0,0,0-1,3.36,5,5,0,0,0,3.64,2,16.11,16.11,0,0,0,4.87-.77,43.89,43.89,0,0,0,1.9,5.27c.43,1,.9,2,1.38,3l-.59-.84c-1.17-1.36-4.22-3.28-6.06-2.5a2.37,2.37,0,0,0-1,3.37,4.93,4.93,0,0,0,3.63,2,15.61,15.61,0,0,0,4.74-.72l.56,1.13c.91,1.81,1.82,3.61,2.66,5.4.3.63.57,1.27.84,1.9-.25-.37-.47-.68-.51-.73-1.17-1.35-4.22-3.27-6.07-2.49a2.37,2.37,0,0,0-1,3.36,5,5,0,0,0,3.64,2,15.53,15.53,0,0,0,4.61-.69c.26.65.52,1.31.74,2,.14.44.31.86.42,1.32s.25.89.37,1.33c.21.85.43,1.74.61,2.58.13.58.24,1.14.35,1.7-.29-.63-.88-1.86-.94-2-.95-1.51-3.68-3.88-5.62-3.38a2.37,2.37,0,0,0-1.55,3.17,5,5,0,0,0,3.28,2.57,16.29,16.29,0,0,0,4.91,0c.19.93.36,1.84.51,2.7.52,3,.85,5.47,1.05,7.21H54V169.2H75V140.11H66.66c.74-1.56,1.69-3.65,2.71-6.15.37-.89.74-1.85,1.12-2.84a16,16,0,0,0,4.89.38,4.93,4.93,0,0,0,3.46-2.32,2.36,2.36,0,0,0-1.31-3.27c-1.89-.64-4.79,1.52-5.85,3-.06.08-.64,1.08-1,1.71.15-.4.3-.79.45-1.21.3-.83.58-1.66.88-2.56.13-.43.26-.87.4-1.32s.23-.92.35-1.39c.26-1.08.47-2.19.66-3.32a15.11,15.11,0,0,0,4.64,1.07,5,5,0,0,0,3.78-1.77,2.37,2.37,0,0,0-.8-3.43c-1.78-.92-5,.77-6.24,2-.08.07-.88,1.08-1.32,1.64.11-.67.22-1.35.3-2,.25-2,.44-4,.63-6,.06-.62.13-1.23.2-1.84.25.09,3.3,1.23,4.8,1.12a4.94,4.94,0,0,0,3.77-1.76,2.37,2.37,0,0,0-.79-3.44c-1.78-.92-5,.77-6.24,2-.1.09-1.26,1.54-1.53,1.92.14-1.35.3-2.69.5-4A40,40,0,0,1,76.29,101c.12,0,3.29,1.24,4.83,1.13a4.94,4.94,0,0,0,3.77-1.76,2.37,2.37,0,0,0-.8-3.44c-1.78-.92-5,.78-6.23,2-.1.1-1.35,1.66-1.56,2,0-.1,0-.21.08-.31a30.13,30.13,0,0,1,2.1-5c.45-.9.94-1.72,1.43-2.52a15.6,15.6,0,0,0,4.57,1.61,4.94,4.94,0,0,0,4-1.34,2.36,2.36,0,0,0-.42-3.5c-1.66-1.11-5,.22-6.42,1.34-.07.06-.78.76-1.29,1.28.23-.36.46-.73.68-1.06.84-1.26,1.68-2.37,2.44-3.34.44-.55.84-1,1.22-1.49a15.86,15.86,0,0,0,4.78-.68,4.93,4.93,0,0,0,2.88-3A2.36,2.36,0,0,0,90.32,80Zm-22,53.48c-1.21,2.77-2.31,5-3.11,6.6h-.68l0-.18c-.24-1.76-.62-4.27-1.21-7.26-.19-.95-.41-1.95-.64-3a27.78,27.78,0,0,0,2.74-1.29,17,17,0,0,0,4,2.57C69,131.85,68.63,132.7,68.28,133.5Z" style="fill: rgb(168, 168, 168); stroke: rgb(168, 168, 168); stroke-linecap: round; stroke-linejoin: round; transform-origin: 66.9599px 122.556px;" id="elptkskqquta" class="animable"></path><path d="M79.83,92.75s.64-2.33.66-2.49c.25-1.77-.32-5.33-2.12-6.2a2.37,2.37,0,0,0-3.23,1.42A5,5,0,0,0,76,89.56C76.85,90.88,79.83,92.75,79.83,92.75Z" style="fill: rgb(168, 168, 168); stroke: rgb(168, 168, 168); stroke-linecap: round; stroke-linejoin: round; transform-origin: 77.7813px 88.2994px;" id="els775umjf84" class="animable"></path><rect x="47.37" y="169.72" width="112.62" height="302.3" style="fill: rgb(255, 255, 255); stroke: rgb(168, 168, 168); stroke-linecap: round; stroke-linejoin: round; transform-origin: 103.68px 320.87px;" id="elttu2l7ms0fq" class="animable"></rect><rect x="53.23" y="178.13" width="99.89" height="60.51" style="fill: rgb(255, 255, 255); stroke: rgb(168, 168, 168); stroke-linecap: round; stroke-linejoin: round; transform-origin: 103.175px 208.385px;" id="elhab1iufccr6" class="animable"></rect><rect x="92.31" y="188.18" width="18.24" height="7.12" style="fill: rgb(168, 168, 168); stroke: rgb(168, 168, 168); stroke-linecap: round; stroke-linejoin: round; transform-origin: 101.43px 191.74px;" id="elso1mukgnk9" class="animable"></rect><rect x="53.23" y="250.52" width="99.89" height="60.51" style="fill: rgb(255, 255, 255); stroke: rgb(168, 168, 168); stroke-linecap: round; stroke-linejoin: round; transform-origin: 103.175px 280.775px;" id="elw7p8flve2f" class="animable"></rect><rect x="92.31" y="260.57" width="18.24" height="7.12" style="fill: rgb(168, 168, 168); stroke: rgb(168, 168, 168); stroke-linecap: round; stroke-linejoin: round; transform-origin: 101.43px 264.13px;" id="elgolgrzx7er" class="animable"></rect><rect x="53.23" y="322.9" width="99.89" height="60.51" style="fill: rgb(255, 255, 255); stroke: rgb(168, 168, 168); stroke-linecap: round; stroke-linejoin: round; transform-origin: 103.175px 353.155px;" id="el9mjk4chpn7r" class="animable"></rect><rect x="92.31" y="332.96" width="18.24" height="7.12" style="fill: rgb(168, 168, 168); stroke: rgb(168, 168, 168); stroke-linecap: round; stroke-linejoin: round; transform-origin: 101.43px 336.52px;" id="eld17axltep1k" class="animable"></rect><rect x="53.23" y="395.29" width="99.89" height="60.51" style="fill: rgb(255, 255, 255); stroke: rgb(168, 168, 168); stroke-linecap: round; stroke-linejoin: round; transform-origin: 103.175px 425.545px;" id="el16begv4jqhs" class="animable"></rect><rect x="92.31" y="405.35" width="18.24" height="7.12" style="fill: rgb(168, 168, 168); stroke: rgb(168, 168, 168); stroke-linecap: round; stroke-linejoin: round; transform-origin: 101.43px 408.91px;" id="ell7q0pg7y9y" class="animable"></rect><rect x="94.59" y="113.98" width="56.19" height="45.93" style="fill: rgb(255, 255, 255); stroke: rgb(168, 168, 168); stroke-linecap: round; stroke-linejoin: round; transform-origin: 122.685px 136.945px;" id="elamy8xqtuwwn" class="animable"></rect><polygon points="152.94 169.62 152.94 142.06 124.85 111.8 92.43 111.8 92.43 169.62 152.94 169.62" style="fill: rgb(168, 168, 168); stroke: rgb(168, 168, 168); stroke-linecap: round; stroke-linejoin: round; transform-origin: 122.685px 140.71px;" id="elem9o09kenzi" class="animable"></polygon></g><g id="freepik--Desk--inject-39" class="animable animator-active animator-hidden" style="transform-origin: 346.62px 338.055px;"><rect x="353.86" y="213.71" width="29.15" height="78.18" style="fill: rgb(255, 255, 255); stroke: rgb(168, 168, 168); stroke-linecap: round; stroke-linejoin: round; transform-origin: 368.435px 252.8px;" id="eldyd5l0nsc6s" class="animable"></rect><rect x="315.43" y="203.77" width="106" height="75.53" style="fill: rgb(168, 168, 168); stroke: rgb(168, 168, 168); stroke-linecap: round; stroke-linejoin: round; transform-origin: 368.43px 241.535px;" id="ellefga3yznv" class="animable"></rect><rect x="320.07" y="208.41" width="96.73" height="66.25" style="fill: rgb(255, 255, 255); stroke: rgb(168, 168, 168); stroke-linecap: round; stroke-linejoin: round; transform-origin: 368.435px 241.535px;" id="el6x2c0twfukb" class="animable"></rect><g id="el5fbrfd2cncm"><circle cx="402.18" cy="248.45" r="10.91" style="fill: rgb(168, 168, 168); transform-origin: 402.18px 248.45px; transform: rotate(-9.25deg);" class="animable"></circle></g><path d="M401.38,241.3v-1.12h1.93v1.12c1.68.34,2.54,1.63,2.54,3.67v.47h-2.24v-.62c0-1.08-.43-1.48-1.18-1.48s-1.18.4-1.18,1.48c0,3.09,4.62,3.24,4.62,7.53,0,2-.88,3.35-2.56,3.69v1.1h-1.93V256c-1.7-.34-2.56-1.65-2.56-3.69v-1h2.24v1.18c0,1.08.47,1.46,1.22,1.46s1.23-.38,1.23-1.46c0-3.09-4.62-3.24-4.62-7.53C398.89,243,399.73,241.66,401.38,241.3Z" style="fill: rgb(255, 255, 255); transform-origin: 402.345px 248.66px;" id="elywlfdyx2xqc" class="animable"></path><polyline points="335.08 251.75 348.3 237.54 358.88 243.82 368.8 231.92 383.34 237.87 402.84 222.01" style="fill: none; stroke: rgb(168, 168, 168); stroke-linecap: round; stroke-linejoin: round; stroke-width: 3px; transform-origin: 368.96px 236.88px;" id="el5pzboiedgig" class="animable"></polyline><polygon points="408.25 217.62 395.57 219.62 403.64 229.6 408.25 217.62" style="fill: rgb(168, 168, 168); transform-origin: 401.91px 223.61px;" id="el93frxs52zdt" class="animable"></polygon><rect x="345.91" y="291.22" width="45.71" height="3.98" style="fill: rgb(255, 255, 255); stroke: rgb(168, 168, 168); stroke-linecap: round; stroke-linejoin: round; transform-origin: 368.765px 293.21px;" id="el1j7te1421fw" class="animable"></rect><rect x="235.93" y="291.22" width="87.45" height="3.98" style="fill: rgb(255, 255, 255); stroke: rgb(168, 168, 168); stroke-linecap: round; stroke-linejoin: round; transform-origin: 279.655px 293.21px;" id="eld9of92eecfi" class="animable"></rect><rect x="455.22" y="308.7" width="7.95" height="163.64" style="fill: rgb(255, 255, 255); stroke: rgb(168, 168, 168); stroke-linecap: round; stroke-linejoin: round; transform-origin: 459.195px 390.52px;" id="el4k5zgh9rm44" class="animable"></rect><rect x="233.28" y="308.7" width="225.87" height="25.18" style="fill: rgb(255, 255, 255); stroke: rgb(168, 168, 168); stroke-linecap: round; stroke-linejoin: round; transform-origin: 346.215px 321.29px;" id="el6wm99veg4rc" class="animable"></rect><rect x="230.63" y="308.7" width="7.95" height="163.64" style="fill: rgb(255, 255, 255); stroke: rgb(168, 168, 168); stroke-linecap: round; stroke-linejoin: round; transform-origin: 234.605px 390.52px;" id="el7mekjahp0ds" class="animable"></rect><rect x="377.71" y="308.7" width="85.46" height="139.13" style="fill: rgb(255, 255, 255); stroke: rgb(168, 168, 168); stroke-linecap: round; stroke-linejoin: round; transform-origin: 420.44px 378.265px;" id="elatzc3s4ix9a" class="animable"></rect><rect x="224.78" y="300.15" width="243.7" height="11.2" style="fill: rgb(168, 168, 168); stroke: rgb(168, 168, 168); stroke-linecap: round; stroke-linejoin: round; transform-origin: 346.63px 305.75px;" id="elaixmxrs5eud" class="animable"></rect><rect x="217.48" y="295.53" width="258.28" height="7.17" style="fill: rgb(255, 255, 255); stroke: rgb(168, 168, 168); stroke-linecap: round; stroke-linejoin: round; transform-origin: 346.62px 299.115px;" id="elvtgyy3w51m" class="animable"></rect><rect x="382.34" y="317.97" width="76.19" height="33.79" style="fill: rgb(255, 255, 255); stroke: rgb(168, 168, 168); stroke-linecap: round; stroke-linejoin: round; transform-origin: 420.435px 334.865px;" id="el7oygrczmft3" class="animable"></rect><rect x="412.16" y="332.55" width="13.91" height="3.98" style="fill: rgb(168, 168, 168); stroke: rgb(168, 168, 168); stroke-linecap: round; stroke-linejoin: round; transform-origin: 419.115px 334.54px;" id="elqd795twcvw" class="animable"></rect><rect x="382.34" y="363.02" width="76.19" height="33.79" style="fill: rgb(255, 255, 255); stroke: rgb(168, 168, 168); stroke-linecap: round; stroke-linejoin: round; transform-origin: 420.435px 379.915px;" id="el2q38bsxotwr" class="animable"></rect><rect x="412.16" y="377.6" width="13.91" height="3.98" style="fill: rgb(168, 168, 168); stroke: rgb(168, 168, 168); stroke-linecap: round; stroke-linejoin: round; transform-origin: 419.115px 379.59px;" id="el9izidvrk7sw" class="animable"></rect><rect x="382.34" y="408.07" width="76.19" height="33.79" style="fill: rgb(255, 255, 255); stroke: rgb(168, 168, 168); stroke-linecap: round; stroke-linejoin: round; transform-origin: 420.435px 424.965px;" id="eldx0m6ulucvq" class="animable"></rect><rect x="412.16" y="422.65" width="13.91" height="3.98" style="fill: rgb(168, 168, 168); stroke: rgb(168, 168, 168); stroke-linecap: round; stroke-linejoin: round; transform-origin: 419.115px 424.64px;" id="elhx76dobuovw" class="animable"></rect><rect x="309.16" y="365.76" width="10.98" height="41.89" style="fill: rgb(168, 168, 168); stroke: rgb(168, 168, 168); stroke-linecap: round; stroke-linejoin: round; transform-origin: 314.65px 386.705px;" id="el7vo5vny7q07" class="animable"></rect><rect x="306.37" y="401.07" width="16.55" height="52.97" style="fill: rgb(168, 168, 168); stroke: rgb(168, 168, 168); stroke-linecap: round; stroke-linejoin: round; transform-origin: 314.645px 427.555px;" id="elv8489vkcye" class="animable"></rect><polygon points="322.58 452.65 314.91 450.58 314.91 450.21 314.21 450.39 313.52 450.21 313.52 450.58 305.85 452.65 253.57 462.4 253.57 466.24 313.52 466.24 314.91 466.24 374.85 466.24 374.85 462.4 322.58 452.65" style="fill: rgb(168, 168, 168); stroke: rgb(168, 168, 168); stroke-linecap: round; stroke-linejoin: round; transform-origin: 314.21px 458.225px;" id="elen7uk6j54m4" class="animable"></polygon><path d="M261.76,468.68A3.66,3.66,0,1,1,258.1,465,3.66,3.66,0,0,1,261.76,468.68Z" style="fill: rgb(168, 168, 168); stroke: rgb(168, 168, 168); stroke-linecap: round; stroke-linejoin: round; transform-origin: 258.1px 468.66px;" id="elc05r2szqss6" class="animable"></path><path d="M317.87,468.68a3.66,3.66,0,1,1-3.66-3.66A3.66,3.66,0,0,1,317.87,468.68Z" style="fill: rgb(168, 168, 168); stroke: rgb(168, 168, 168); stroke-linecap: round; stroke-linejoin: round; transform-origin: 314.21px 468.68px;" id="el6pq65jdszyk" class="animable"></path><path d="M374.33,468.68a3.66,3.66,0,1,1-3.66-3.66A3.66,3.66,0,0,1,374.33,468.68Z" style="fill: rgb(168, 168, 168); stroke: rgb(168, 168, 168); stroke-linecap: round; stroke-linejoin: round; transform-origin: 370.67px 468.68px;" id="elbkwxg4fkbe" class="animable"></path><path d="M261.69,325.61h10.86a0,0,0,0,1,0,0v47.06a0,0,0,0,1,0,0h-3.87a7,7,0,0,1-7-7V325.61A0,0,0,0,1,261.69,325.61Z" style="fill: rgb(255, 255, 255); stroke: rgb(168, 168, 168); stroke-linecap: round; stroke-linejoin: round; transform-origin: 267.115px 349.14px;" id="el4t3xpoz59a" class="animable"></path><rect x="255.48" y="315.78" width="17.07" height="8.79" style="fill: rgb(255, 255, 255); stroke: rgb(168, 168, 168); stroke-linecap: round; stroke-linejoin: round; transform-origin: 264.015px 320.175px;" id="elhotuojw1gx" class="animable"></rect><path d="M357.13,372.67h0A10.86,10.86,0,0,0,368,361.81v-36.2H357.13Z" style="fill: rgb(255, 255, 255); stroke: rgb(168, 168, 168); stroke-linecap: round; stroke-linejoin: round; transform-origin: 362.565px 349.14px;" id="elpaatlhg01lh" class="animable"></path><g id="elzlukcs91rxm"><rect x="357.13" y="315.78" width="17.07" height="8.79" style="fill: rgb(255, 255, 255); stroke: rgb(168, 168, 168); stroke-linecap: round; stroke-linejoin: round; transform-origin: 365.665px 320.175px; transform: rotate(180deg);" class="animable"></rect></g><path d="M348.29,379H281a14.24,14.24,0,0,1-14.24-14.24l8-100.59a11.86,11.86,0,0,1,11.87-11.87h56.06a11.86,11.86,0,0,1,11.87,11.87l8,100.59A14.25,14.25,0,0,1,348.29,379Z" style="fill: rgb(255, 255, 255); stroke: rgb(168, 168, 168); stroke-linecap: round; stroke-linejoin: round; transform-origin: 314.66px 315.65px;" id="el27ptz5gfx48" class="animable"></path><path d="M348.29,384.3H281a14.23,14.23,0,0,1-14.24-14.24l8-100.59a11.87,11.87,0,0,1,11.87-11.87h56.06a11.87,11.87,0,0,1,11.87,11.87l8,100.59A14.24,14.24,0,0,1,348.29,384.3Z" style="fill: rgb(255, 255, 255); stroke: rgb(168, 168, 168); stroke-linecap: round; stroke-linejoin: round; transform-origin: 314.66px 320.95px;" id="eldvf7qdtgqd" class="animable"></path></g><g id="freepik--Character--inject-39" class="animable" style="transform-origin: 225.655px 286.136px;"><path d="M187.82,272.48l-5.48,15.2s-30.21,44.14-38.66,57.65-7.45,11.83-7,16.48,20.07,69.11,20.49,75.87a75.46,75.46,0,0,1,0,11l8-1.27a35.73,35.73,0,0,1-4.64,8.45c-3,3.8-3.38,5.48-8.45,9.28s-8.86,3.8-5.91,5.49,15.62,1.69,19.42-.84,6.34-7.18,8.45-9.29l3.38-3.38,1.26,3.8s4.23-4.64,5.91-5.49,3-3.38,3-3.38-1.27-3.37-2.53-5.91-6.34-6.33-6.34-6.33-3.65-35-7-51.48-1.21-16.79-2.06-19.33a43.86,43.86,0,0,0-2.11-5.06L203,318.15a2.61,2.61,0,0,1,1.12-.69h0a2.58,2.58,0,0,1,3.31,2.65c-.9,13.32-2.38,52.12-.58,57.51,2.11,6.33,17.4,29.8,18.57,32.09,3,5.87,17.17,24.2,19.71,29.69s5.06,11.4,5.06,11.4l7.6-4.64s2.12,2.95,0,5.49-8.44,12.24-13.08,15.2-3,5.49-3,5.49,16.89-.43,19.84-.85,5.07-3.8,7.18-6.75a89.18,89.18,0,0,0,5.07-8.87l3.38,3s2.11-4.23,3.38-7.61a21.7,21.7,0,0,0,1.26-6.75s-5.06-4.65-8.44-5.91-6.34-2.54-6.34-2.54l-4.22-6.33s-11.4-39.69-16.47-49.4a58.13,58.13,0,0,0-10.55-14.78s13.65-50,16.18-60.94a168.77,168.77,0,0,0,3.38-19.85A86.48,86.48,0,0,0,219.91,270C198.38,266.15,187.82,272.48,187.82,272.48Z" style="fill: rgb(38, 50, 56); stroke: rgb(38, 50, 56); stroke-linecap: round; stroke-linejoin: round; transform-origin: 209.106px 370.549px;" id="ela5s0wbr1h3a" class="animable"></path><path d="M209.86,277.8v4.78s-7.44,7.44-6.64,9.84,2.66,13,2.66,13" style="fill: none; stroke: rgb(122, 122, 122); stroke-linecap: round; stroke-linejoin: round; transform-origin: 206.51px 291.61px;" id="elst3dj1yn8r" class="animable"></path><path d="M215.18,278.06l.53,5.32s-6.91,8.77-7.18,10.1a16.72,16.72,0,0,0,.27,4.25" style="fill: none; stroke: rgb(122, 122, 122); stroke-linecap: round; stroke-linejoin: round; transform-origin: 212.103px 287.895px;" id="elblfk51zw55w" class="animable"></path><path d="M222.62,282.05A94.08,94.08,0,0,1,241,289.23" style="fill: none; stroke: rgb(122, 122, 122); stroke-linecap: round; stroke-linejoin: round; transform-origin: 231.81px 285.64px;" id="el6n4dvbd2q13" class="animable"></path><path d="M241.27,292.86a128.66,128.66,0,0,0-13.86-4.7" style="fill: none; stroke: rgb(122, 122, 122); stroke-linecap: round; stroke-linejoin: round; transform-origin: 234.34px 290.51px;" id="el4jkhrldl592" class="animable"></path><path d="M247.61,295.34l-3-1.18" style="fill: none; stroke: rgb(122, 122, 122); stroke-linecap: round; stroke-linejoin: round; transform-origin: 246.11px 294.75px;" id="eloxc008266tk" class="animable"></path><path d="M222.13,306.93c5.11-1.8,11.82-3.63,17.51-3.35" style="fill: none; stroke: rgb(122, 122, 122); stroke-linecap: round; stroke-linejoin: round; transform-origin: 230.885px 305.241px;" id="el9tv80ve11mq" class="animable"></path><path d="M214.12,310.23s1.53-.75,4-1.75" style="fill: none; stroke: rgb(122, 122, 122); stroke-linecap: round; stroke-linejoin: round; transform-origin: 216.12px 309.355px;" id="elklq3ohs1pas" class="animable"></path><line x1="195.09" y1="293.91" x2="196.84" y2="295.61" style="fill: none; stroke: rgb(122, 122, 122); stroke-linecap: round; stroke-linejoin: round; transform-origin: 195.965px 294.76px;" id="el8t30o8clsie" class="animable"></line><line x1="186.74" y1="285.77" x2="192.53" y2="291.42" style="fill: none; stroke: rgb(122, 122, 122); stroke-linecap: round; stroke-linejoin: round; transform-origin: 189.635px 288.595px;" id="elpudkkw0q5xn" class="animable"></line><line x1="187.8" y1="280.46" x2="197.37" y2="281.52" style="fill: none; stroke: rgb(122, 122, 122); stroke-linecap: round; stroke-linejoin: round; transform-origin: 192.585px 280.99px;" id="el82uvoxnrx" class="animable"></line><path d="M242.62,178.27s-16.76,2-21.59,3.13-8.24,1.13-9.38,2.55S200.29,194.46,195.46,197s-19.32,6.54-19.61,7.39,2,15.06,1.42,19.6-1.13,7.39-1.13,7.39l27-10.51s-6.82,26.14-9.38,32.67-3.12,10.8-5.11,12.22-3.7,1.14-3.7,3.69,1.71,6,2.56,6.25,18.47-2,25.29-.85,32.67,12.22,38.07,15.91,5.68,2,7.67-2,2-12.21,2-13.07S281.83,228,281.83,228s3.12,23.58,6.25,25.29,10.51,1.42,13.92-5.4,10.51-17,7.11-25-8-17.9-10.52-23.59-4.83-6.25-11.36-8.8-23.87-10.8-25.57-11.08S242.62,178.27,242.62,178.27Z" style="fill: rgb(255, 255, 255); stroke: rgb(38, 50, 56); stroke-linecap: round; stroke-linejoin: round; transform-origin: 242.917px 235.537px;" id="el22p5hmfjabyh" class="animable"></path><path d="M230.87,256.19c5.8,7.77,14.76,20.46,16.95,27.52" style="fill: none; stroke: rgb(38, 50, 56); stroke-linecap: round; stroke-linejoin: round; transform-origin: 239.345px 269.95px;" id="elxe4eqwqigwi" class="animable"></path><path d="M225.77,249.54s.79,1,2.08,2.67" style="fill: none; stroke: rgb(38, 50, 56); stroke-linecap: round; stroke-linejoin: round; transform-origin: 226.81px 250.875px;" id="elofwh1eogzk" class="animable"></path><path d="M253.72,281.86c.25.5.48,1,.71,1.48" style="fill: none; stroke: rgb(38, 50, 56); stroke-linecap: round; stroke-linejoin: round; transform-origin: 254.075px 282.6px;" id="el5d12fqh1og3" class="animable"></path><path d="M248.55,272.69s1.76,2.81,3.58,6.13" style="fill: none; stroke: rgb(38, 50, 56); stroke-linecap: round; stroke-linejoin: round; transform-origin: 250.34px 275.755px;" id="el6fq28wi6r5" class="animable"></path><path d="M199.32,273.06s18.37-1.11,22.41-.37" style="fill: none; stroke: rgb(38, 50, 56); stroke-linecap: round; stroke-linejoin: round; transform-origin: 210.525px 272.748px;" id="el7fhxnq5vypr" class="animable"></path><path d="M218.05,274.52s11,1.11,15.44,2.94" style="fill: none; stroke: rgb(38, 50, 56); stroke-linecap: round; stroke-linejoin: round; transform-origin: 225.77px 275.99px;" id="el9xsh2g470ea" class="animable"></path><polygon points="281.83 227.99 278.82 218.09 278.27 226.81 266.28 226.26 278.82 233.62 281.83 227.99" style="fill: rgb(38, 50, 56); stroke: rgb(38, 50, 56); stroke-linecap: round; stroke-linejoin: round; transform-origin: 274.055px 225.855px;" id="elhelrj764b6m" class="animable"></polygon><line x1="203.13" y1="221.74" x2="211.65" y2="191.34" style="fill: none; stroke: rgb(38, 50, 56); stroke-linecap: round; stroke-linejoin: round; transform-origin: 207.39px 206.54px;" id="elxzdxtifzlo" class="animable"></line><polygon points="207.39 205.83 204.16 197.66 203.61 216.46 199.53 217 203.13 220.89 207.39 205.83" style="fill: rgb(38, 50, 56); stroke: rgb(38, 50, 56); stroke-linecap: round; stroke-linejoin: round; transform-origin: 203.46px 209.275px;" id="el7i2zjceci9m" class="animable"></polygon><path d="M178.69,202.14s6.82,6.53,8,11.64-2.84,13.07-4.83,16.2-4.26,4-9.95,4.55-11.93-4.27-12.21-9.1S166.48,201,178.69,202.14Z" style="fill: rgb(255, 255, 255); stroke: rgb(38, 50, 56); stroke-linecap: round; stroke-linejoin: round; transform-origin: 173.297px 218.333px;" id="eliewafh8g4qr" class="animable"></path><path d="M229.27,211.51s-14.49,17.62-25.86,24.15-18.47,11.08-18.47,11.08l-4,19s15.91-2.27,20.74-4,6-2.56,6-2.56,10-21,16.77-32.67,7.67-13.35,7.67-13.35Z" style="fill: rgb(38, 50, 56); stroke: rgb(38, 50, 56); stroke-linecap: round; stroke-linejoin: round; transform-origin: 206.53px 238.625px;" id="elhy3hz3nrk4e" class="animable"></path><path d="M231.26,190.77c0,.85-2,20.74-2,20.74l2.84,1.71,18.75-13.93s.85-3.4-.28-3.4-10.23,6.53-10.23,6.53l-8-3.13.85-8.23Z" style="fill: rgb(38, 50, 56); stroke: rgb(38, 50, 56); stroke-linecap: round; stroke-linejoin: round; transform-origin: 240.208px 201.995px;" id="el0lbgctm7pul" class="animable"></path><path d="M241.19,201.82l-.84.6-1.07-.42-9.16.87c-.22,2.27-.43,4.41-.59,6l9.68-.92,9.17-6.82Z" style="fill: rgb(143, 201, 237); stroke: rgb(38, 50, 56); stroke-linecap: round; stroke-linejoin: round; transform-origin: 238.955px 205px;" id="elklx7gypltzd" class="animable"></path><path d="M223.32,228.51l-11.64,1.11a57.54,57.54,0,0,1-8.27,6l-1.41.82,17.9-1.71C221.07,232.57,222.22,230.45,223.32,228.51Z" style="fill: rgb(143, 201, 237); stroke: rgb(38, 50, 56); stroke-linecap: round; stroke-linejoin: round; transform-origin: 212.66px 232.475px;" id="elb0g9oa5wnu" class="animable"></path><path d="M183.58,253.27l28.29-2.69c.94-1.91,2-4,3.1-6.24l-30.12,2.87Z" style="fill: rgb(143, 201, 237); stroke: rgb(38, 50, 56); stroke-linecap: round; stroke-linejoin: round; transform-origin: 199.275px 248.805px;" id="elebjo4sw5o4w" class="animable"></path><path d="M225.91,215.4c-1.61,1.82-3.7,4.1-6.07,6.52l7.74-.74c1.83-3.16,2.94-5.11,3.6-6.28Z" style="fill: rgb(143, 201, 237); stroke: rgb(38, 50, 56); stroke-linecap: round; stroke-linejoin: round; transform-origin: 225.51px 218.41px;" id="el8xt00ac9fhc" class="animable"></path><path d="M244.61,173.16s-8.52,4.26-9.66,6.25-3.13,8.8-7.39,14.2-9.09,9.09-4.83,7.39S233,193,233,193l2.56,8s1.42.57,4-.57,8.23-5.11,8.23-2.84-1.7,13.35,0,11.65,2.56-7.39,9.38-12.79,12.79-8.52,13.07-14.77-1.7-7.67-7.39-9.09S245.18,172,244.61,173.16Z" style="fill: rgb(255, 255, 255); stroke: rgb(38, 50, 56); stroke-linecap: round; stroke-linejoin: round; transform-origin: 245.671px 190.629px;" id="el0qbr5n6s96z" class="animable"></path><path d="M241.77,167.76s.85,4.54-1.71,11.93-8.52,23.58-3.41,21.88,25-17.9,26.71-20.17,6-19.33,6-19.33-16.76,4.55-21.6,5.12S241.77,167.76,241.77,167.76Z" style="fill: rgb(168, 168, 168); stroke: rgb(38, 50, 56); stroke-linecap: round; stroke-linejoin: round; transform-origin: 252.002px 181.882px;" id="ellso8pd8446" class="animable"></path><path d="M241.77,167.76a22,22,0,0,1-.58,8c24.22-4.66,28.14-13.71,28.14-13.71s-16.76,4.55-21.6,5.12S241.77,167.76,241.77,167.76Z" style="fill: rgb(38, 50, 56); stroke: rgb(38, 50, 56); stroke-linecap: round; stroke-linejoin: round; transform-origin: 255.26px 168.905px;" id="elwy0vxralvyg" class="animable"></path><path d="M277.85,155.26s-2.56-3.13,8.24-6.54,17.05-6.82,15.63-13.35-9.09-8.24-9.09-8.24,6.53-12.22,2.27-14.78-9.38,1.14-9.38,1.14,1.14-9.09-3.41-9.38-9.09,3.7-9.09,3.7-.28-9.38-8.24-7.67-5.11,9.94-5.11,9.94-9.09-3.69-12.22,2-.57,8-.57,8-3.12,1.14-3.12,4.27,2.84,6.25,5.11,6.53,5.68-1.42,8.53-.85,13.63,6.82,10.51,16.76.57,11.65,2,12.5S276.72,157.53,277.85,155.26Z" style="fill: rgb(38, 50, 56); stroke: rgb(38, 50, 56); stroke-linecap: round; stroke-linejoin: round; transform-origin: 272.84px 129.693px;" id="elff5dwf9f5qh" class="animable"></path><path d="M275,139.06s4-4.83,4-7.95-10.8-10.8-17.33-10.8-15.91,7.95-15.91,9.94,0,3.13-1.42,4.55-6.82,4.26-8.24,7.39-6.25,23.58-5.12,24.71,7.58,2.36,9.38,2.28c6-.29,17.9,0,21.88-1.42a22.74,22.74,0,0,0,6.81-4,18.2,18.2,0,0,0,8-1.42c3.41-1.71,7.39-7.1,3.69-9.38s-9.09-1.13-9.09-1.13-.85-1.14.57-3.13,1.42-1.7,1.42-3.12S272.74,141.33,275,139.06Z" style="fill: rgb(168, 168, 168); stroke: rgb(38, 50, 56); stroke-linecap: round; stroke-linejoin: round; transform-origin: 256.517px 144.747px;" id="el52oejxfuvzx" class="animable"></path><path d="M254,131.67a8.87,8.87,0,0,1-3.7,4c-2.84,1.71-8.52,2.84-7.1,5.12s4.83,2.55,7.1,2.55a2.58,2.58,0,0,0,2.56-2.27" style="fill: none; stroke: rgb(38, 50, 56); stroke-linecap: round; stroke-linejoin: round; transform-origin: 248.488px 137.505px;" id="el4ixu98gbh3" class="animable"></path><path d="M242.34,147a60,60,0,0,0,9.66,1.13,25.69,25.69,0,0,0,10.51-1.7s-5.4,7.39-8.52,9.66A14.48,14.48,0,0,1,242.62,159c-4.26-.85-5.4-3.13-4.26-4.83S242.34,147,242.34,147Z" style="fill: rgb(38, 50, 56); stroke: rgb(38, 50, 56); stroke-linecap: round; stroke-linejoin: round; transform-origin: 250.227px 152.815px;" id="elxzj8o0cfvem" class="animable"></path><path d="M259.42,150.43c1.74-2.13,3.09-4,3.09-4a25.69,25.69,0,0,1-10.51,1.7,60,60,0,0,1-9.66-1.13l-1.18,2.2A31.5,31.5,0,0,0,259.42,150.43Z" style="fill: rgb(255, 255, 255); stroke: rgb(38, 50, 56); stroke-linecap: round; stroke-linejoin: round; transform-origin: 251.835px 148.836px;" id="el6obwp40190j" class="animable"></path><path d="M238.13,154.56c-.69,1.64.59,3.61,4.49,4.39a13.93,13.93,0,0,0,9.89-1.88c.88-.56,1.48-1,1.48-1S246.82,158.74,238.13,154.56Z" style="fill: rgb(255, 255, 255); stroke: rgb(38, 50, 56); stroke-linecap: round; stroke-linejoin: round; transform-origin: 245.971px 156.87px;" id="elv23nd1a823" class="animable"></path><path d="M259.67,137.36s4-1.42,6.25,2" style="fill: none; stroke: rgb(38, 50, 56); stroke-linecap: round; stroke-linejoin: round; transform-origin: 262.795px 138.214px;" id="elghx293o0zsa" class="animable"></path><path d="M250.29,134.51s-1.13-1.7-3.69,0" style="fill: none; stroke: rgb(38, 50, 56); stroke-linecap: round; stroke-linejoin: round; transform-origin: 248.445px 134.132px;" id="eldt571rpgwtd" class="animable"></path><path d="M264.5,129.12s3.69,1.7,4,7.38" style="fill: none; stroke: rgb(38, 50, 56); stroke-linecap: round; stroke-linejoin: round; stroke-width: 2px; transform-origin: 266.5px 132.81px;" id="elyjip9jbf63" class="animable"></path><path d="M253.42,128a7.06,7.06,0,0,0-6.25,2" style="fill: none; stroke: rgb(38, 50, 56); stroke-linecap: round; stroke-linejoin: round; stroke-width: 2px; transform-origin: 250.295px 128.947px;" id="elawwgvwknqsh" class="animable"></path><path d="M294.62,227.71s-10.23,7.1-11.37,9.66S283.82,253,285,257s5.12,4.26,10.52,4.55,11.36.28,14.49-5.12,2.27-11.36-2.84-17.61A63.61,63.61,0,0,0,294.62,227.71Z" style="fill: rgb(255, 255, 255); stroke: rgb(38, 50, 56); stroke-linecap: round; stroke-linejoin: round; transform-origin: 297.355px 244.679px;" id="elttsnhd8vuoh" class="animable"></path><path d="M302.29,161.22s-3.41-3.12-4.83-2.55-8.81,2.55-7.68,5.68,6.82,1.7,8.81,1.13A4.85,4.85,0,0,0,302.29,161.22Z" style="fill: rgb(168, 168, 168); stroke: rgb(38, 50, 56); stroke-linecap: round; stroke-linejoin: round; transform-origin: 295.977px 162.453px;" id="elylfg5zh8kf9" class="animable"></path><path d="M310.53,161.22s-4-5.4-6.82-4.26-3.7,5.4-3.7,5.4-4.26.85-5.11,2.56l-.85,1.7s-3.7.28-4.27,2a12.32,12.32,0,0,0-.56,3.41,4,4,0,0,0-2.56,2.84c-.57,2.27,0,3.13,1.14,6s4.83,6.82,6,8.24,5.4,2.55,5.69,3.41.28,2.84-.86,9.09-4.26,22.44-6.82,31.25-5.39,11.65-2.27,19.32,6.54,8.81,10.8,7.67a19.58,19.58,0,0,0,13.64-13.64c2.27-8.52-.29-23-.29-32.67s.29-25.85,0-33S310.53,161.22,310.53,161.22Z" style="fill: rgb(168, 168, 168); stroke: rgb(38, 50, 56); stroke-linecap: round; stroke-linejoin: round; transform-origin: 300.678px 208.515px;" id="elb72pgzrye5m" class="animable"></path><path d="M214.49,164.35s-7.67,1.7-11.08,2.27-6-1.14-6.53-2.84-4.55-3.69-4.55-3.69,1.42-1.71,9.66-4,13.36,2,13.36,2Z" style="fill: rgb(168, 168, 168); stroke: rgb(38, 50, 56); stroke-linecap: round; stroke-linejoin: round; transform-origin: 203.84px 161.075px;" id="el2v1w6574ydc" class="animable"></path><path d="M187.56,167.7l6.7-2c2.84-.85,4.61-4.75,4.61-4.75s.28,2,2,1.7,9.38-.85,11.09-.85,8.52-2,8.52-4.55-6.25-9.37-7.39-11.36-4.54-2.84-6.82-2.84-4.54,1.42-11.36,5.68-11.37,6.54-12.79,8.52S159.37,196.17,158,200.43s-5.11,12.78-4.26,16.19c1.05,4.21,5.1,8.4,8.1,11.31,4.19,4.09,13.18,2.35,15.85-2.88,2.27-4.47,3-10.87,3-15.81,0-6.54-1.42-11.08,0-20.17S187.56,167.7,187.56,167.7Z" style="fill: rgb(168, 168, 168); stroke: rgb(38, 50, 56); stroke-linecap: round; stroke-linejoin: round; transform-origin: 187.048px 186.623px;" id="elrdolbjvnaj" class="animable"></path><path d="M210.23,162.64s0,2.56.85,2.84,6.54.57,6.82-1.13,0-2.56-1.42-3.13S210.8,160.94,210.23,162.64Z" style="fill: rgb(168, 168, 168); stroke: rgb(38, 50, 56); stroke-linecap: round; stroke-linejoin: round; transform-origin: 214.114px 163.324px;" id="elakwv44ec8di" class="animable"></path><polyline points="198.87 160.94 201.42 158.95 199.43 156.96" style="fill: none; stroke: rgb(38, 50, 56); stroke-linecap: round; stroke-linejoin: round; transform-origin: 200.145px 158.95px;" id="elmp7pdkg1qh7" class="animable"></polyline><path d="M204.83,146.73s4.26,8.53,5.12,10.23.28,1.42-.86,2.27-5.39,3.13-5.39,3.13" style="fill: none; stroke: rgb(38, 50, 56); stroke-linecap: round; stroke-linejoin: round; transform-origin: 207.031px 154.545px;" id="elj87xxui4p1" class="animable"></path><path d="M210,146.16s6,10.8,5.4,11.94-5.12,4.54-5.12,4.54" style="fill: none; stroke: rgb(38, 50, 56); stroke-linecap: round; stroke-linejoin: round; transform-origin: 212.721px 154.4px;" id="el9u6sm2e2me9" class="animable"></path><path d="M214.78,148.72s4.26,7.1,3.69,9.09-2.93,3.37-2.93,3.37" style="fill: none; stroke: rgb(38, 50, 56); stroke-linecap: round; stroke-linejoin: round; transform-origin: 216.651px 154.95px;" id="elbi225t9hh6t" class="animable"></path></g><g id="freepik--Floor--inject-39" class="animable" style="transform-origin: 254.03px 472.34px;"><line x1="488" y1="472.34" x2="20.06" y2="472.34" style="fill: none; stroke: rgb(38, 50, 56); stroke-linecap: round; stroke-linejoin: round; transform-origin: 254.03px 472.34px;" id="ellhtyn4y57zp" class="animable"></line></g><defs>     <filter id="active" height="200%">         <feMorphology in="SourceAlpha" result="DILATED" operator="dilate" radius="2"></feMorphology>                <feFlood flood-color="#32DFEC" flood-opacity="1" result="PINK"></feFlood>        <feComposite in="PINK" in2="DILATED" operator="in" result="OUTLINE"></feComposite>        <feMerge>            <feMergeNode in="OUTLINE"></feMergeNode>            <feMergeNode in="SourceGraphic"></feMergeNode>        </feMerge>    </filter>    <filter id="hover" height="200%">        <feMorphology in="SourceAlpha" result="DILATED" operator="dilate" radius="2"></feMorphology>                <feFlood flood-color="#ff0000" flood-opacity="0.5" result="PINK"></feFlood>        <feComposite in="PINK" in2="DILATED" operator="in" result="OUTLINE"></feComposite>        <feMerge>            <feMergeNode in="OUTLINE"></feMergeNode>            <feMergeNode in="SourceGraphic"></feMergeNode>        </feMerge>            <feColorMatrix type="matrix" values="0   0   0   0   0                0   1   0   0   0                0   0   0   0   0                0   0   0   1   0 "></feColorMatrix>    </filter></defs></svg>